#N canvas 592 91 920 806 12;
#X declare -lib ceammc;
#X declare -lib windowing;
#X declare -lib pd-rtpghi;
#X obj 20 37 tgl 20 0 empty empty empty 0 -10 0 12 #fcfcfc #000000
#000000 0 1;
#X msg 18 71 \; pd dsp \$1;
#X obj 605 18 tgl 20 0 empty empty empty 0 -10 0 12 #fcfcfc #000000
#000000 0 1;
#X obj 14 6 declare -lib ceammc;
#N canvas 109 106 277 420 audioplayback 0;
#X obj 89 229 readsf~;
#X obj 91 277 *~ 0;
#X obj 93 152 openpanel;
#X msg 93 197 open \$1 \, 1;
#X obj 156 229 t b;
#X obj 93 175 symbol;
#X obj 94 126 inlet;
#X obj 141 125 inlet;
#X obj 90 308 outlet~;
#X connect 0 0 1 0;
#X connect 0 1 4 0;
#X connect 1 0 8 0;
#X connect 2 0 5 0;
#X connect 3 0 0 0;
#X connect 4 0 5 0;
#X connect 5 0 3 0;
#X connect 6 0 2 0;
#X connect 7 0 1 1;
#X restore 497 48 pd audioplayback;
#X msg 497 24 bang;
#X obj 158 8 loadbang;
#N canvas 121 159 442 363 dbrms 0;
#X obj 73 62 dbtorms;
#X obj 73 87 pack 0 50;
#X obj 73 112 line~;
#X obj 224 22 inlet;
#X obj 61 210 outlet~;
#X obj 27 19 inlet~;
#X obj 66 173 *~;
#X connect 0 0 1 0;
#X connect 1 0 2 0;
#X connect 2 0 6 1;
#X connect 3 0 0 0;
#X connect 5 0 6 0;
#X connect 6 0 4 0;
#X restore 377 86 pd dbrms;
#X obj 468 23 vsl 12 40 0 100 0 0 empty empty Vol 0 -9 0 10 #fcfcfc
#000000 #000000 0 1;
#N canvas 121 159 442 363 dbrms 0;
#X obj 73 62 dbtorms;
#X obj 73 87 pack 0 50;
#X obj 73 112 line~;
#X obj 224 22 inlet;
#X obj 61 210 outlet~;
#X obj 27 19 inlet~;
#X obj 66 173 *~;
#X connect 0 0 1 0;
#X connect 1 0 2 0;
#X connect 2 0 6 1;
#X connect 3 0 0 0;
#X connect 5 0 6 0;
#X connect 6 0 4 0;
#X restore 131 190 pd dbrms;
#X obj 119 447 dac~;
#X obj 209 190 vsl 12 40 0 127 0 0 empty empty Vol 0 -9 0 10 #fcfcfc
#000000 #000000 0 1;
#X obj 148 332 *~;
#X obj 196 322 vsl 15 128 1 50 0 0 empty empty empty 0 -9 0 10 #fcfcfc
#000000 #000000 0 1;
#X text 183 69 dim 1 has to match size: (pow of 2) +1, f 22;
#X floatatom 455 85 5 0 0 0 - - - 0;
#X obj 375 16 adc~ 1;
#X obj 344 199 osc~ 440;
#X obj 555 227 declare -lib windowing;
#X floatatom 352 164 5 0 0 0 - - - 0;
#X obj 214 148 noise~;
#X obj 555 187 declare -lib pd-rtpghi;
#N canvas 0 41 1512 856 process 0;
#X obj 1034 424 block~ 4096 4;
#X obj 343 174 inlet~;
#X obj 675 398 rfft~;
#X obj 482 855 rifft~;
#X obj 504 1002 outlet~;
#X obj 510 198 table \$0.hann;
#X obj 1141 395 s \$0.hann;
#X msg 1140 370 cosinesum \$1 0.5 -0.5;
#X msg 1139 280 4096;
#X obj 436 223 tabreceive~ \$0.hann;
#X obj 1139 258 loadbang;
#X msg 1193 280 2048;
#X msg 1142 421 const 1;
#X obj 1099 134 inlet ctrl;
#X obj 1010 364 t f f f;
#X obj 755 377 t f f;
#X obj 670 335 /~ 4096;
#X obj 672 373 *~ 1;
#X obj 671 429 *~;
#X obj 705 428 *~;
#X obj 675 458 sqrt~;
#N canvas 200 100 190 200 nop~ 0;
#X obj 50 70 inlet~;
#X obj 50 140 outlet~;
#X connect 0 0 1 0;
#X restore 673 483 pd nop~;
#X obj 753 933 tabreceive~ \$0.hann;
#X floatatom 992 425 5 0 0 0 - - - 0;
#X obj 343 224 *~;
#X obj 491 952 /~ 1;
#X obj 586 958 *~;
#X obj 478 885 /~ 4;
#X msg 1034 392 set \$1 4;
#X obj 1084 175 t f f;
#X obj 679 498 rtpghi~ 512 1e-05 1 hann;
#X connect 1 0 24 0;
#X connect 2 0 18 0;
#X connect 2 0 18 1;
#X connect 2 1 19 0;
#X connect 2 1 19 1;
#X connect 3 0 27 0;
#X connect 7 0 6 0;
#X connect 8 0 7 0;
#X connect 9 0 24 1;
#X connect 10 0 8 0;
#X connect 11 0 7 0;
#X connect 12 0 6 0;
#X connect 13 0 29 0;
#X connect 14 0 23 0;
#X connect 14 0 16 1;
#X connect 14 1 28 0;
#X connect 14 2 7 0;
#X connect 15 0 17 1;
#X connect 15 1 25 1;
#X connect 16 0 17 0;
#X connect 17 0 2 0;
#X connect 18 0 20 0;
#X connect 19 0 20 0;
#X connect 20 0 21 0;
#X connect 21 0 30 0;
#X connect 22 0 26 1;
#X connect 24 0 16 0;
#X connect 25 0 26 0;
#X connect 26 0 4 0;
#X connect 27 0 25 0;
#X connect 28 0 0 0;
#X connect 29 0 15 0;
#X connect 29 1 14 0;
#X connect 30 0 3 0;
#X connect 30 1 3 1;
#X restore 56 118 pd process;
#X f 48;
#X msg 158 36 512;
#X connect 0 0 1 0;
#X connect 2 0 4 1;
#X connect 4 0 7 0;
#X connect 5 0 4 0;
#X connect 6 0 23 0;
#X connect 8 0 7 1;
#X connect 8 0 15 0;
#X connect 9 0 12 0;
#X connect 11 0 9 1;
#X connect 12 0 10 0;
#X connect 12 0 10 1;
#X connect 13 0 12 1;
#X connect 17 0 22 0;
#X connect 19 0 17 0;
#X connect 22 0 9 0;
#X connect 23 0 22 1;
