#N canvas 774 221 896 760 12;
#X obj 406 190 gemhead \; 0;
#X obj 126 111 loadbang;
#X obj 126 134 \$1;
#X obj 127 155 + 1;
#X msg 536 145 set \$1;
#X obj 634 208 == 0;
#X obj 596 424 spigot;
#X obj 378 456 spigot;
#X obj 587 206 != 0;
#X obj 381 553 pix_texture \; quality 0 \; repeat 0 \; rectangle 0
;
#X obj 381 673 square 4;
#X obj 62 218 r dimen;
#X obj 97 291 translateXYZ 0 0 -4;
#X obj 97 252 gemframebuffer 2048 64 RGBA32F \; type FLOAT, f 32;
#X obj 317 295 s;
#X msg 335 255 symbol id-\$1;
#X obj 461 531 r id-\$1;
#X obj 415 39 r bang-\$1;
#X obj 108 473 s;
#X obj 11 13 inlet;
#X msg 130 436 symbol bang-\$1;
#X obj 131 186 t f f;
#X obj 536 35 loadbang;
#X obj 537 65 \$1;
#X obj 535 120 + 1;
#X obj 440 254 t a a;
#X obj 406 229 t a a;
#N canvas 71 84 1251 671 shader 0;
#X obj 345 585 glsl_program;
#X obj 442 481 print linking;
#X obj 339 395 glsl_fragment;
#X msg 351 372 print;
#X msg 339 548 print;
#X floatatom 428 629 0 0 0 0 - - - 0;
#X msg 445 457 link \$1;
#X obj 444 437 change;
#X msg 66 196 dimen_1 \$1;
#X msg 68 226 dimen_2 \$1;
#X obj 362 670 outlet;
#X obj 276 101 inlet;
#X msg 344 297 open shader-\$1.frag;
#X obj 642 412 r shader-\$1;
#X obj 642 459 route list;
#X obj 77 79 r dimen;
#X obj 77 112 unpack s f f;
#X obj 355 78 \$1;
#X obj 388 129 != 0;
#X obj 356 206 spigot;
#X obj 357 104 t f f;
#X obj 426 52 r load;
#X obj 425 201 == 0;
#X obj 357 229 spigot;
#X obj 523 57 r fragname-\$1;
#X obj 526 249 spigot;
#X msg 521 300 open;
#X obj 428 90 t b f;
#X connect 0 0 10 0;
#X connect 0 1 5 0;
#X connect 2 0 0 0;
#X connect 2 1 7 0;
#X connect 3 0 2 0;
#X connect 4 0 0 0;
#X connect 6 0 0 0;
#X connect 6 0 1 0;
#X connect 7 0 6 0;
#X connect 8 0 0 0;
#X connect 9 0 0 0;
#X connect 11 0 2 0;
#X connect 12 0 2 0;
#X connect 13 0 14 0;
#X connect 14 0 0 0;
#X connect 15 0 16 0;
#X connect 16 1 8 0;
#X connect 16 2 9 0;
#X connect 17 0 20 0;
#X connect 18 0 19 1;
#X connect 18 0 25 1;
#X connect 19 0 23 0;
#X connect 20 0 19 0;
#X connect 20 1 18 0;
#X connect 21 0 27 0;
#X connect 22 0 23 1;
#X connect 23 0 12 0;
#X connect 24 0 25 0;
#X connect 25 0 26 0;
#X connect 26 0 2 0;
#X connect 27 0 17 0;
#X connect 27 1 22 0;
#X restore 378 477 pd shader;
#N canvas 102 94 1251 671 shader 0;
#X obj 345 585 glsl_program;
#X obj 442 481 print linking;
#X obj 339 395 glsl_fragment;
#X msg 351 372 print;
#X msg 339 548 print;
#X floatatom 428 629 0 0 0 0 - - - 0;
#X msg 445 457 link \$1;
#X obj 444 437 change;
#X msg 66 196 dimen_1 \$1;
#X msg 68 226 dimen_2 \$1;
#X obj 362 670 outlet;
#X obj 276 101 inlet;
#X obj 559 449 r shader-\$1;
#X obj 558 477 route list;
#X obj 77 79 r dimen;
#X obj 77 112 unpack s f f;
#X obj 355 78 \$1;
#X obj 352 198 spigot;
#X obj 357 104 t f f;
#X obj 388 129 == 0;
#X obj 426 52 r load;
#X obj 433 190 == 0;
#X obj 352 220 spigot;
#X obj 523 57 r fragname-\$1;
#X obj 520 231 spigot;
#X msg 349 285 open shader-\$1.frag;
#X obj 427 78 t b f;
#X msg 517 295 open \$1;
#X connect 0 0 10 0;
#X connect 0 1 5 0;
#X connect 2 0 0 0;
#X connect 2 1 7 0;
#X connect 3 0 2 0;
#X connect 4 0 0 0;
#X connect 6 0 0 0;
#X connect 6 0 1 0;
#X connect 7 0 6 0;
#X connect 8 0 0 0;
#X connect 9 0 0 0;
#X connect 11 0 2 0;
#X connect 12 0 13 0;
#X connect 13 0 0 0;
#X connect 14 0 15 0;
#X connect 15 1 8 0;
#X connect 15 2 9 0;
#X connect 16 0 18 0;
#X connect 17 0 22 0;
#X connect 18 0 17 0;
#X connect 18 1 19 0;
#X connect 19 0 17 1;
#X connect 19 0 24 1;
#X connect 20 0 26 0;
#X connect 21 0 22 1;
#X connect 22 0 25 0;
#X connect 23 0 24 0;
#X connect 24 0 27 0;
#X connect 25 0 2 0;
#X connect 26 0 16 0;
#X connect 26 1 21 0;
#X connect 27 0 2 0;
#X restore 526 423 pd shader;
#X obj 536 88 t f f f;
#X obj 256 414 r last;
#X obj 187 518 spigot;
#X obj 267 498 \$1;
#X obj 279 567 ==;
#X obj 97 317 t b a a a;
#X obj 184 671 s;
#X msg 239 632 symbol data-\$1;
#N canvas 150 188 663 457 input_data 0;
#X obj 50 24 inlet;
#X obj 52 268 outlet;
#X obj 181 30 bng 15 250 50 0 empty empty empty 0 -6 0 8 #fcfcfc #000000
#000000;
#N canvas 0 22 450 300 openpanel 0;
#X obj 114 62 inlet;
#X obj 121 254 outlet;
#X obj 114 125 openpanel;
#X msg 114 162 set open \$1;
#X obj 114 199 t b a;
#X connect 0 0 2 0;
#X connect 2 0 3 0;
#X connect 3 0 4 0;
#X connect 4 0 1 0;
#X connect 4 1 1 0;
#X restore 181 51 pd openpanel;
#X msg 181 79 open /Users/maximilianhelligrath/Documents/GitHub/PD-RTPGHI/examples/pool.jpeg
;
#X text 183 126 Here you can replace the [pix_image] object with any
kind of Gems pix objects \, that fit into the rendering tree;
#X obj 51 132 pix_image pool.jpeg;
#X connect 0 0 6 0;
#X connect 2 0 3 0;
#X connect 3 0 4 0;
#X connect 4 0 6 0;
#X connect 6 0 1 0;
#X restore 594 447 pd input_data;
#X obj 256 436 t f b f;
#X obj 196 563 print;
#X obj 309 499 - 1;
#X obj 361 146 r on;
#X connect 0 0 26 0;
#X connect 1 0 2 0;
#X connect 2 0 3 0;
#X connect 3 0 21 0;
#X connect 4 0 0 0;
#X connect 5 0 6 1;
#X connect 6 0 37 0;
#X connect 7 0 27 0;
#X connect 8 0 7 1;
#X connect 9 0 10 0;
#X connect 11 0 13 0;
#X connect 12 0 34 0;
#X connect 13 0 12 0;
#X connect 13 1 14 0;
#X connect 15 0 14 1;
#X connect 16 0 9 1;
#X connect 17 0 0 0;
#X connect 20 0 18 1;
#X connect 21 0 20 0;
#X connect 21 1 15 0;
#X connect 22 0 23 0;
#X connect 23 0 29 0;
#X connect 24 0 4 0;
#X connect 25 0 7 0;
#X connect 25 1 6 0;
#X connect 26 0 13 0;
#X connect 26 1 25 0;
#X connect 27 0 9 0;
#X connect 28 0 6 0;
#X connect 29 0 24 0;
#X connect 29 1 8 0;
#X connect 29 2 5 0;
#X connect 30 0 38 0;
#X connect 31 0 35 0;
#X connect 32 0 33 0;
#X connect 33 0 31 1;
#X connect 34 0 18 0;
#X connect 34 1 31 0;
#X connect 34 2 7 0;
#X connect 34 3 28 0;
#X connect 36 0 35 1;
#X connect 37 0 9 0;
#X connect 38 0 36 0;
#X connect 38 1 32 0;
#X connect 38 2 40 0;
#X connect 40 0 33 1;
#X connect 41 0 0 0;
