#N canvas 1062 372 450 300 12;
#X obj 133 58 inlet;
#X obj 203 253 s;
#X obj 204 18 r \$2-\$1;
#X obj 253 132 loadbang;
#X obj 253 157 i \$1;
#X obj 253 181 + 1;
#X msg 253 232 symbol \$2-\$1;
#X msg 294 91 bang;
#X obj 253 207 pack 0 \$2;
#X obj 206 57 list append buffer-\$1;
#X connect 2 0 9 0;
#X connect 3 0 4 0;
#X connect 4 0 5 0;
#X connect 5 0 8 0;
#X connect 6 0 1 1;
#X connect 7 0 4 0;
#X connect 8 0 6 0;
#X connect 9 0 1 0;
