#N canvas 522 254 811 551 12;
#X msg 43 42 1, f 2;
#X msg 88 127 \; dimension 1024 128;
#X obj 44 129 t a b;
#X msg 605 28 color 1 0 0;
#N canvas 87 154 247 179 Gem.init 0;
#X obj 118 46 loadbang;
#X msg 118 81 reset;
#X obj 118 113 outlet;
#X connect 0 0 1 0;
#X connect 1 0 2 0;
#X restore 623 54 pd Gem.init;
#N canvas 340 107 682 322 gemwin 0;
#X obj 102 122 tgl 15 0 \$0-gemstart \$0-gemstart empty 17 7 0 10 #fcfcfc
#000000 #000000 0 1;
#X obj 102 161 r \$0-gemstart;
#X obj 102 182 select 1 0;
#X msg 102 214 create \, 1;
#X msg 177 215 destroy;
#X obj 102 239 t a;
#X obj 318 54 inlet;
#X obj 318 255 gemwin;
#X obj 318 100 t a a;
#X obj 318 287 outlet;
#X obj 350 128 route create destroy;
#X obj 350 150 t b;
#X msg 350 172 1;
#X obj 390 150 t b;
#X msg 390 172 0;
#X obj 350 195 t f;
#X msg 350 219 set \$1;
#X text 118 122 rendering;
#X connect 1 0 2 0;
#X connect 2 0 3 0;
#X connect 2 1 4 0;
#X connect 3 0 5 0;
#X connect 4 0 5 0;
#X connect 5 0 8 0;
#X connect 6 0 8 0;
#X connect 7 0 9 0;
#X connect 8 0 7 0;
#X connect 8 1 10 0;
#X connect 10 0 11 0;
#X connect 10 1 13 0;
#X connect 11 0 12 0;
#X connect 12 0 15 0;
#X connect 13 0 14 0;
#X connect 14 0 15 0;
#X connect 15 0 16 0;
#X connect 16 0 0 0;
#X coords 0 -1 1 1 85 40 1 100 100;
#X restore 605 75 pd gemwin;
#X obj 58 402 pix_image img1.jpg;
#X obj 42 463 s data-0;
#X obj 43 374 r render-0;
#X obj 110 465 bng 15 250 50 0 empty empty empty 17 7 0 10 #fcfcfc
#000000 #000000;
#X obj 44 98 enum_shaders 2;
#X floatatom 175 24 2 0 0 1 .shader - - 0;
#X floatatom 390 44 3 0 0 1 Uniform\ Value - - 0;
#X obj 155 54 f;
#X obj 149 26 bng 15 250 50 0 empty empty empty 17 7 0 10 #fcfcfc #000000
#000000;
#X obj 154 77 pack f s f;
#X msg 261 17 sigma;
#X obj 260 43 symbol;
#X obj 120 437 t b a;
#X obj 44 169 print;
#X connect 0 0 10 0;
#X connect 2 0 19 0;
#X connect 2 1 1 0;
#X connect 3 0 5 0;
#X connect 4 0 5 0;
#X connect 6 0 18 0;
#X connect 8 0 6 0;
#X connect 10 0 2 0;
#X connect 11 0 13 1;
#X connect 12 0 15 2;
#X connect 13 0 15 0;
#X connect 14 0 13 0;
#X connect 15 0 10 1;
#X connect 16 0 17 0;
#X connect 17 0 15 1;
#X connect 18 0 9 0;
#X connect 18 1 7 0;
