#N canvas 271 190 1169 550 12;
#X obj 16 174 s bang-0;
#X obj 25 48 inlet;
#X obj 544 434 r id-\$1;
#X obj 545 463 outlet tex_id;
#X obj 239 253 clone buffers \$1 bang id shader;
#X obj 440 155 s, f 8;
#X msg 440 79 \$2 \$3 shader-\$1;
#X obj 440 105 list split 2;
#X obj 440 54 inlet shader;
#X obj 175 453 outlet data;
#X obj 89 98 s last;
#X obj 87 47 loadbang;
#X obj 88 74 \$1;
#X obj 159 47 inlet dimensions;
#X obj 160 79 s dimen;
#X obj 277 93 \$2;
#X obj 308 95 \$3;
#X obj 280 47 loadbang;
#X obj 277 123 pack;
#X msg 277 156 dimen \$1 \$2;
#X obj 55 245 tgl 15 0 empty empty empty 17 7 0 10 #fcfcfc #000000
#000000 0 1;
#X msg 55 274 \; pd-input_data vis \$1;
#X text 54 219 click to change pix_object;
#X obj 17 136 route bang;
#X obj 173 404 r data-\$1;
#X obj 278 70 t b b b;
#X obj 387 128 \$4;
#X obj 387 155 s load;
#X obj 600 263 s;
#X msg 659 94 symbol fragname-\$1;
#X msg 601 192 open /Users/maximilianhelligrath/Documents/PD_05_02/shader-1.frag
;
#X obj 596 48 inlet fragnumber;
#X obj 609 92 t b f;
#X obj 597 135 bng 15 250 50 0 empty empty empty 0 -6 0 8 #fcfcfc #000000
#000000;
#N canvas 0 22 450 300 openpanel 0;
#X obj 114 62 inlet;
#X obj 121 254 outlet;
#X obj 114 125 openpanel;
#X msg 114 162 set open \$1;
#X obj 114 199 t b a;
#X connect 0 0 2 0;
#X connect 2 0 3 0;
#X connect 3 0 4 0;
#X connect 4 0 1 0;
#X connect 4 1 1 0;
#X restore 597 156 pd openpanel;
#X connect 1 0 23 0;
#X connect 2 0 3 0;
#X connect 6 0 7 0;
#X connect 7 0 5 0;
#X connect 7 1 5 1;
#X connect 8 0 6 0;
#X connect 11 0 12 0;
#X connect 12 0 10 0;
#X connect 13 0 14 0;
#X connect 15 0 18 0;
#X connect 16 0 18 1;
#X connect 17 0 25 0;
#X connect 18 0 19 0;
#X connect 19 0 14 0;
#X connect 20 0 21 0;
#X connect 23 0 0 0;
#X connect 23 1 20 0;
#X connect 24 0 9 0;
#X connect 25 0 15 0;
#X connect 25 1 16 0;
#X connect 25 2 26 0;
#X connect 26 0 27 0;
#X connect 29 0 28 1;
#X connect 30 0 28 0;
#X connect 31 0 32 0;
#X connect 32 0 33 0;
#X connect 32 1 29 0;
#X connect 33 0 34 0;
#X connect 34 0 30 0;
