#N canvas 265 39 1188 859 12;
#X obj 950 229 s;
#X obj 540 14 r \$2-\$1;
#X obj 984 46 loadbang;
#X obj 983 132 i \$1;
#X obj 984 156 + 1;
#X msg 972 204 symbol \$2-\$1;
#X obj 974 181 pack 0 \$2;
#X obj 217 606 glsl_program;
#X obj 307 547 print linking;
#X obj 221 470 glsl_fragment;
#X msg 153 364 print;
#X msg 168 559 print;
#X floatatom 315 606 0 0 0 0 - - - 0;
#X msg 310 523 link \$1;
#X obj 309 503 change;
#X msg 70 473 rectangle \$1;
#X obj 66 283 makefilename %s.frag;
#X msg 66 308 open \$1;
#X obj 69 447 f 0;
#X obj 66 333 t b a;
#X obj 815 45 list append shader-\$1;
#X obj 68 212 symbol shader-\$1;
#X obj 468 746 pix_texture \; quality 0;
#X obj 469 793 square 4;
#X obj 551 346 translateXYZ 0 0 -4;
#X obj 550 309 gemframebuffer 2048 64 RGBA32F \; type FLOAT;
#X obj 463 100 \$1;
#X obj 586 217 + 1;
#X msg 587 241 set \$1;
#X obj 587 264 gemhead 2 \; 0;
#X msg 249 240 set \$1;
#X obj 531 556 s;
#X obj 176 70 t b a;
#X obj 617 378 t a b a;
#X obj 550 463 \$1;
#X obj 550 485 + 1;
#X msg 551 512 symbol data-\$1;
#X obj 118 33 r data-\$1;
#X obj 458 302 r dimension;
#X obj 459 325 pack 0 64;
#X msg 459 347 dimen \$1 \$2;
#X obj 463 123 t b f f;
#X obj 723 87 inlet;
#X obj 249 266 gemhead 1 \; 0;
#X obj 255 77 bang~;
#X obj 259 180 spigot;
#X obj 343 22 \$1;
#X obj 342 44 == 0;
#X obj 542 39 t b b a;
#X obj 96 245 print;
#X obj 722 110 unpack s f;
#X obj 722 134 pack s f;
#X obj 458 369 unpack s f f;
#X msg 26 531 dimen_1 \$1;
#X msg 26 551 dimen_2 \$1;
#X obj 722 156 route list;
#X obj 344 66 t f f;
#X obj 327 372 s render-0;
#X obj 258 312 t a a;
#X obj 373 307 spigot;
#X connect 1 0 48 0;
#X connect 2 0 3 0;
#X connect 3 0 4 0;
#X connect 4 0 6 0;
#X connect 5 0 0 1;
#X connect 6 0 5 0;
#X connect 7 0 22 0;
#X connect 7 1 12 0;
#X connect 9 0 7 0;
#X connect 9 1 14 0;
#X connect 10 0 9 0;
#X connect 11 0 7 0;
#X connect 13 0 7 0;
#X connect 13 0 8 0;
#X connect 14 0 13 0;
#X connect 15 0 22 0;
#X connect 16 0 17 0;
#X connect 17 0 19 0;
#X connect 18 0 15 0;
#X connect 19 0 18 0;
#X connect 19 1 9 0;
#X connect 20 0 0 0;
#X connect 21 0 16 0;
#X connect 21 0 49 0;
#X connect 22 0 23 0;
#X connect 24 0 33 0;
#X connect 25 0 24 0;
#X connect 25 1 22 1;
#X connect 26 0 41 0;
#X connect 27 0 28 0;
#X connect 28 0 29 0;
#X connect 29 0 25 0;
#X connect 30 0 43 0;
#X connect 32 0 26 0;
#X connect 32 1 9 0;
#X connect 33 0 31 0;
#X connect 33 1 34 0;
#X connect 33 2 9 0;
#X connect 34 0 35 0;
#X connect 35 0 36 0;
#X connect 36 0 31 1;
#X connect 37 0 32 0;
#X connect 38 0 39 0;
#X connect 39 0 40 0;
#X connect 40 0 25 0;
#X connect 40 0 52 0;
#X connect 41 0 29 0;
#X connect 41 1 27 0;
#X connect 41 2 30 0;
#X connect 42 0 50 0;
#X connect 43 0 58 0;
#X connect 45 0 43 0;
#X connect 46 0 47 0;
#X connect 47 0 56 0;
#X connect 48 0 21 0;
#X connect 48 1 20 0;
#X connect 48 1 46 0;
#X connect 50 0 51 0;
#X connect 50 1 51 1;
#X connect 51 0 55 0;
#X connect 52 1 53 0;
#X connect 52 2 54 0;
#X connect 53 0 7 0;
#X connect 54 0 7 0;
#X connect 55 0 7 0;
#X connect 56 0 59 1;
#X connect 56 1 45 1;
#X connect 58 0 9 0;
#X connect 58 1 59 0;
#X connect 59 0 57 0;
