#N canvas 292 68 884 863 12;
#X obj 407 190 gemhead \; 0;
#X obj 126 111 loadbang;
#X obj 126 134 \$1;
#X obj 127 155 + 1;
#X msg 536 145 set \$1;
#X obj 634 208 == 0;
#X obj 596 354 spigot;
#X obj 378 456 spigot;
#X obj 587 206 != 0;
#X obj 381 553 pix_texture \; quality 0 \; repeat 0 \; rectangle 0
;
#X obj 383 686 square 4;
#X obj 30 206 r dimen;
#X obj 97 291 translateXYZ 0 0 -4;
#X obj 97 252 gemframebuffer 2048 64 RGBA32F \; type FLOAT, f 32;
#X obj 317 295 s;
#X msg 335 255 symbol id-\$1;
#X obj 461 531 r id-\$1;
#X obj 415 39 r bang-\$1;
#X obj 108 473 s;
#X obj 11 13 inlet;
#X msg 130 436 symbol bang-\$1;
#X obj 126 179 t f f;
#X obj 536 35 loadbang;
#X obj 537 65 \$1;
#X obj 535 120 + 1;
#X obj 440 254 t a a;
#X obj 406 229 t a a;
#N canvas 319 137 1251 861 shader 0;
#X obj 365 536 glsl_program;
#X obj 455 484 print linking;
#X obj 339 395 glsl_fragment;
#X msg 351 372 print;
#X msg 317 537 print;
#X floatatom 446 558 0 0 0 0 - - - 0;
#X msg 445 457 link \$1;
#X obj 444 437 change;
#X obj 365 558 outlet;
#X obj 276 101 inlet;
#X msg 344 297 open shader-\$1.frag;
#X obj 519 332 r shader-\$1;
#X obj 519 356 route list;
#X obj 77 79 r dimen;
#X obj 77 112 unpack s f f;
#X obj 355 78 \$1;
#X obj 388 129 != 0;
#X obj 356 206 spigot;
#X obj 357 104 t f f;
#X obj 426 52 r load;
#X obj 425 201 == 0;
#X obj 357 229 spigot;
#X obj 523 57 r fragname-\$1;
#X obj 521 248 spigot;
#X obj 428 90 t b f;
#X obj 371 470 spigot;
#X msg 521 300 open \$1;
#X msg 66 196 dimen_1 \$1;
#X msg 68 226 dimen_2 \$1;
#X obj 563 550 r last;
#X obj 563 594 \$1;
#X obj 592 594 - 1;
#X obj 563 572 t b f;
#X obj 563 616 ==;
#X obj 449 709 spigot;
#X obj 449 734 s all_loaded;
#X connect 0 0 8 0;
#X connect 0 1 5 0;
#X connect 2 0 0 0;
#X connect 2 1 7 0;
#X connect 3 0 2 0;
#X connect 4 0 0 0;
#X connect 5 0 34 0;
#X connect 6 0 0 0;
#X connect 6 0 1 0;
#X connect 7 0 6 0;
#X connect 9 0 2 0;
#X connect 10 0 2 0;
#X connect 11 0 12 0;
#X connect 12 0 25 0;
#X connect 13 0 14 0;
#X connect 14 1 27 0;
#X connect 14 2 28 0;
#X connect 15 0 18 0;
#X connect 16 0 17 1;
#X connect 16 0 23 1;
#X connect 16 0 25 1;
#X connect 17 0 21 0;
#X connect 18 0 17 0;
#X connect 18 1 16 0;
#X connect 19 0 24 0;
#X connect 20 0 21 1;
#X connect 21 0 10 0;
#X connect 22 0 23 0;
#X connect 23 0 26 0;
#X connect 24 0 15 0;
#X connect 24 1 20 0;
#X connect 25 0 0 0;
#X connect 26 0 2 0;
#X connect 27 0 25 0;
#X connect 28 0 25 0;
#X connect 29 0 32 0;
#X connect 30 0 33 0;
#X connect 31 0 33 1;
#X connect 32 0 30 0;
#X connect 32 1 31 0;
#X connect 33 0 34 1;
#X connect 34 0 35 0;
#X restore 378 477 pd shader;
#N canvas 31 66 810 727 shader 0;
#X obj 345 585 glsl_program;
#X obj 339 395 glsl_fragment;
#X msg 351 372 print;
#X msg 339 548 print;
#X floatatom 428 629 0 0 0 0 - - - 0;
#X obj 432 429 change;
#X obj 362 670 outlet;
#X obj 276 101 inlet;
#X obj 559 449 r shader-\$1;
#X obj 558 477 route list;
#X obj 77 79 r dimen;
#X obj 77 112 unpack s f f;
#X obj 355 78 \$1;
#X obj 352 198 spigot;
#X obj 357 104 t f f;
#X obj 388 129 == 0;
#X obj 426 52 r load;
#X obj 433 190 == 0;
#X obj 352 220 spigot;
#X obj 523 57 r fragname-\$1;
#X obj 520 231 spigot;
#X msg 349 285 open shader-\$1.frag;
#X obj 427 78 t b f;
#X msg 517 295 open \$1;
#X obj 561 569 spigot;
#X msg 435 455 link \$1;
#X msg 66 196 dimen_1 \$1;
#X msg 68 226 dimen_2 \$1;
#X obj 455 484 print linking;
#X connect 0 0 6 0;
#X connect 0 1 4 0;
#X connect 1 0 0 0;
#X connect 1 1 5 0;
#X connect 2 0 1 0;
#X connect 3 0 0 0;
#X connect 5 0 25 0;
#X connect 7 0 1 0;
#X connect 8 0 9 0;
#X connect 9 0 24 0;
#X connect 10 0 11 0;
#X connect 11 1 26 0;
#X connect 11 2 27 0;
#X connect 12 0 14 0;
#X connect 13 0 18 0;
#X connect 14 0 13 0;
#X connect 14 1 15 0;
#X connect 15 0 13 1;
#X connect 15 0 20 1;
#X connect 15 0 24 1;
#X connect 16 0 22 0;
#X connect 17 0 18 1;
#X connect 18 0 21 0;
#X connect 19 0 20 0;
#X connect 20 0 23 0;
#X connect 21 0 1 0;
#X connect 22 0 12 0;
#X connect 22 1 17 0;
#X connect 23 0 1 0;
#X connect 24 0 0 0;
#X connect 25 0 0 0;
#X connect 25 0 28 0;
#X connect 26 0 24 0;
#X connect 27 0 24 0;
#X restore 529 396 pd shader;
#X obj 536 88 t f f f;
#X obj 256 414 r last;
#X obj 187 518 spigot;
#X obj 280 466 \$1;
#X obj 281 491 ==;
#X obj 98 367 t b a a a;
#X obj 190 626 s;
#X msg 240 581 symbol data-\$1;
#X obj 256 436 t f b f;
#X obj 307 466 - 1;
#N canvas 529 434 450 300 input_data~ 0;
#X obj 28 37 inlet;
#X obj 28 235 outlet;
#X obj 257 215 outlet~ sync;
#X obj 147 37 inlet~ re;
#X obj 223 39 inlet~ im;
#X obj 378 34 inlet~ a;
#X obj 303 36 inlet~ b;
#X obj 379 64 r dimen;
#X obj 28 130 pix_sig2pix~ 1024 128 \; type FLOAT \; mode waterfall
;
#X connect 0 0 8 0;
#X connect 3 0 8 0;
#X connect 4 0 8 1;
#X connect 5 0 8 3;
#X connect 6 0 8 2;
#X connect 7 0 8 0;
#X connect 8 0 1 0;
#X restore 596 449 pd input_data~;
#X obj 595 475 alpha \; 0;
#X obj 727 34 inlet~ fft;
#X obj 577 517 colorRGB 1 1 1;
#X obj 740 424 sig~ 1;
#X text 725 554 outlet sync;
#X obj 640 630 outlet~ sync;
#X obj 356 166 r on;
#X obj 504 365 spigot;
#X obj 600 283 t f f;
#X connect 0 0 26 0;
#X connect 1 0 2 0;
#X connect 2 0 3 0;
#X connect 3 0 21 0;
#X connect 4 0 0 0;
#X connect 5 0 48 0;
#X connect 6 0 39 0;
#X connect 7 0 27 0;
#X connect 8 0 7 1;
#X connect 9 0 10 0;
#X connect 11 0 13 0;
#X connect 12 0 34 0;
#X connect 13 0 12 0;
#X connect 13 1 14 0;
#X connect 15 0 14 1;
#X connect 16 0 9 1;
#X connect 17 0 0 0;
#X connect 20 0 18 1;
#X connect 21 0 20 0;
#X connect 21 1 15 0;
#X connect 22 0 23 0;
#X connect 23 0 29 0;
#X connect 24 0 4 0;
#X connect 25 0 7 0;
#X connect 25 1 6 0;
#X connect 26 0 13 0;
#X connect 26 1 25 0;
#X connect 27 0 9 0;
#X connect 28 0 39 0;
#X connect 29 0 24 0;
#X connect 29 1 8 0;
#X connect 29 2 5 0;
#X connect 30 0 37 0;
#X connect 31 0 35 0;
#X connect 32 0 33 0;
#X connect 33 0 31 1;
#X connect 34 0 18 0;
#X connect 34 1 31 0;
#X connect 34 2 7 0;
#X connect 34 3 47 0;
#X connect 36 0 35 1;
#X connect 37 0 36 0;
#X connect 37 1 32 0;
#X connect 37 2 38 0;
#X connect 38 0 33 1;
#X connect 39 0 40 0;
#X connect 39 1 45 0;
#X connect 40 0 42 0;
#X connect 41 0 39 1;
#X connect 42 0 9 0;
#X connect 43 0 39 4;
#X connect 46 0 0 0;
#X connect 47 0 28 0;
#X connect 48 0 47 1;
#X connect 48 1 6 1;
