#N canvas 428 118 872 609 12;
#X msg 130 115 0 x \$1;
#X msg 184 116 0 sigma \$1;
#X msg 271 115 0 size \$1;
#X obj 334 346 GOS 3 0, f 24;
#X obj 499 294 r~ audio_in;
#X obj 329 18 loadbang;
#X obj 128 58 1;
#X obj 181 60 4;
#X obj 253 60 1;
#X msg 131 151 1 x \$1;
#X msg 185 152 1 sigma \$1;
#X msg 272 151 1 size \$1;
#X msg 348 114 0 direc 0;
#X msg 353 153 1 direc 1;
#X msg 439 156 2 th \$1;
#X msg 439 114 2 size_e \$1;
#X obj 396 58 0.4;
#X obj 432 57 13;
#X obj 19 77 r x;
#X obj 19 103 t f f;
#X obj 25 172 t f f;
#X obj 25 146 r sigma;
#X obj 25 207 r size;
#X obj 26 232 t f f;
#X obj 25 257 r size_e;
#X obj 24 282 r th;
#X obj 334 369 throw~ sig;
#X connect 0 0 3 0;
#X connect 1 0 3 0;
#X connect 2 0 3 0;
#X connect 3 0 26 0;
#X connect 4 0 3 1;
#X connect 5 0 6 0;
#X connect 5 0 7 0;
#X connect 5 0 8 0;
#X connect 5 0 12 0;
#X connect 5 0 13 0;
#X connect 5 0 16 0;
#X connect 5 0 17 0;
#X connect 6 0 0 0;
#X connect 6 0 9 0;
#X connect 7 0 1 0;
#X connect 7 0 10 0;
#X connect 8 0 2 0;
#X connect 8 0 11 0;
#X connect 12 0 3 0;
#X connect 13 0 3 0;
#X connect 14 0 3 0;
#X connect 15 0 3 0;
#X connect 16 0 14 0;
#X connect 17 0 15 0;
#X connect 18 0 19 0;
#X connect 19 0 9 0;
#X connect 19 1 0 0;
#X connect 20 0 1 0;
#X connect 20 1 10 0;
#X connect 21 0 20 0;
#X connect 22 0 23 0;
#X connect 23 0 11 0;
#X connect 23 1 2 0;
#X connect 24 0 15 0;
#X connect 25 0 14 0;
