#N canvas 343 451 691 270 12;
#X obj 94 105 hsl 128 15 0 100 0 1 sigma empty Sigma -2 -8 0 10 #c6feff
#000000 #000000 1016 1;
#X obj 93 150 hsl 128 15 1 100 0 1 x empty Stepsize -2 -8 0 10 #c6ffc7
#000000 #000000 645 1;
#X obj 93 187 hsl 128 15 0 50 0 1 size empty Size -2 -8 0 10 #c7c6ff
#000000 #000000 1800 1;
#X obj 375 119 hsl 128 15 0 1 0 1 th empty Threshold -2 -8 0 10 #ff8300
#000000 #000000 8100 1;
#X obj 374 166 hsl 128 15 1 15 0 1 size_e empty Weight -2 -8 0 10 #faff00
#000000 #000000 9071 1;
#X text 85 69 Gaussian BLur Kernel;
#X text 368 69 Edge Detection Parameters;
#X floatatom 231 102 5 0 0 0 - sigma - 0;
#X floatatom 232 147 5 0 0 0 - x - 0;
#X floatatom 231 185 5 0 0 0 - size - 0;
#X floatatom 43 147 5 0 0 0 - - - 0;
#X floatatom 43 105 5 0 0 0 - - - 0;
#X floatatom 43 188 5 0 0 0 - - - 0;
#X floatatom 515 117 5 0 0 0 - th - 0;
#X floatatom 513 164 5 0 0 0 - - size_e 0;
#X floatatom 327 164 5 0 0 0 - - - 0;
#X connect 10 0 1 0;
#X connect 11 0 0 0;
#X connect 12 0 2 0;
#X connect 15 0 4 0;
