#N canvas 502 163 872 609 12;
#X msg 300 293 0 x \$1;
#X msg 362 292 0 sigma \$1;
#X msg 451 291 0 size \$1;
#X obj 760 386 r~ audio_in;
#X obj 329 18 loadbang;
#X obj 128 58 1;
#X obj 253 60 1;
#X msg 53 297 1 x \$1;
#X msg 107 298 1 sigma \$1;
#X msg 200 299 1 size \$1;
#X msg 539 49 0 direc 0;
#X msg 623 48 1 direc 1;
#X obj 428 111 t f f;
#X obj 428 172 t f f;
#X obj 432 235 t f f;
#X obj 600 476 throw~ sig;
#X obj 595 438 GOS 2 0, f 24;
#X obj 181 60 3;
#X obj 428 87 r x_x;
#X obj 428 146 r sigma_x;
#X obj 433 212 r size_x;
#X obj 26 108 t f f;
#X obj 26 169 t f f;
#X obj 30 232 t f f;
#X obj 26 84 r x_y;
#X obj 26 143 r sigma_y;
#X obj 31 209 r size_y;
#X obj 78 392 spigot;
#X obj 136 391 spigot;
#X obj 201 388 spigot;
#X obj 298 381 spigot;
#X obj 356 380 spigot;
#X obj 417 378 spigot;
#X obj 250 475 r link;
#X connect 0 0 16 0;
#X connect 1 0 16 0;
#X connect 2 0 16 0;
#X connect 3 0 16 1;
#X connect 4 0 5 0;
#X connect 4 0 6 0;
#X connect 4 0 10 0;
#X connect 4 0 11 0;
#X connect 4 0 17 0;
#X connect 5 0 0 0;
#X connect 5 0 7 0;
#X connect 6 0 2 0;
#X connect 6 0 9 0;
#X connect 7 0 16 0;
#X connect 8 0 16 0;
#X connect 9 0 16 0;
#X connect 10 0 16 0;
#X connect 11 0 16 0;
#X connect 12 0 30 0;
#X connect 12 1 0 0;
#X connect 13 0 31 0;
#X connect 13 1 1 0;
#X connect 14 0 32 0;
#X connect 14 1 2 0;
#X connect 16 0 15 0;
#X connect 17 0 1 0;
#X connect 17 0 8 0;
#X connect 18 0 12 0;
#X connect 19 0 13 0;
#X connect 20 0 14 0;
#X connect 21 0 27 0;
#X connect 21 1 7 0;
#X connect 22 0 28 0;
#X connect 22 1 8 0;
#X connect 23 0 29 0;
#X connect 23 1 9 0;
#X connect 24 0 21 0;
#X connect 25 0 22 0;
#X connect 26 0 23 0;
#X connect 27 0 7 0;
#X connect 28 0 8 0;
#X connect 29 0 9 0;
#X connect 30 0 0 0;
#X connect 31 0 1 0;
#X connect 32 0 2 0;
#X connect 33 0 27 1;
#X connect 33 0 28 1;
#X connect 33 0 29 1;
#X connect 33 0 30 1;
#X connect 33 0 31 1;
#X connect 33 0 32 1;
