#N canvas 948 381 567 409 12;
#X obj 91 87 hsl 128 15 0 100 0 1 sigma_x empty Sigma -2 -8 0 10 #c6feff
#000000 #000000 1016 1;
#X obj 90 131 hsl 128 15 1 100 0 1 x_x empty Stepsize -2 -8 0 10 #c6ffc7
#000000 #000000 0 1;
#X obj 90 168 hsl 128 15 0 50 0 1 size_x empty Size -2 -8 0 10 #c7c6ff
#000000 #000000 508 1;
#X floatatom 228 83 5 0 0 0 - sigma_x - 0;
#X floatatom 229 128 5 0 0 0 - x_x - 0;
#X floatatom 228 166 5 0 0 0 - size_x - 0;
#X floatatom 40 128 5 0 0 0 - - - 0;
#X floatatom 39 86 5 0 0 0 - - - 0;
#X floatatom 40 169 5 0 0 0 - - - 0;
#X obj 86 247 hsl 128 15 0 100 0 1 sigma_y empty Sigma -2 -8 0 10 #00ffed
#000000 #000000 127 1;
#X obj 85 292 hsl 128 15 1 100 0 1 x_y empty Stepsize -2 -8 0 10 #a3ff9b
#000000 #000000 0 1;
#X obj 85 329 hsl 128 15 0 50 0 1 size_y empty Size -2 -8 0 10 #c3b1ff
#000000 #000000 254 1;
#X floatatom 223 244 5 0 0 0 - sigma_y - 0;
#X floatatom 224 289 5 0 0 0 - x_y - 0;
#X floatatom 223 327 5 0 0 0 - size_y - 0;
#X floatatom 35 289 5 0 0 0 - - - 0;
#X floatatom 35 247 5 0 0 0 - - - 0;
#X floatatom 35 330 5 0 0 0 - - - 0;
#X text 77 211 Gaussian Blur Kernel y-Direction;
#X text 82 50 Gaussian Blur Kernel x-Direction;
#X obj 391 58 tgl 15 0 link empty Linking\\\ ON/OFF 17 7 0 10 #dfdfdf
#000000 #000000 0 1;
#X obj 36 377 s repeat;
#X obj 37 356 tgl 15 0 empty empty empty 17 7 0 10 #fcfcfc #000000
#000000 0 1;
#X connect 6 0 1 0;
#X connect 7 0 0 0;
#X connect 8 0 2 0;
#X connect 15 0 10 0;
#X connect 16 0 9 0;
#X connect 17 0 11 0;
#X connect 22 0 21 0;
