#N canvas 353 200 1292 860 12;
#X floatatom 795 368 5 0 0 0 - - - 0;
#X obj 689 418 square 4;
#X obj 43 194 t a a;
#X obj 44 172 alpha;
#X obj 90 171 tgl 20 0 empty empty empty 0 -10 0 12 #fcfcfc #000000
#000000 0 1;
#X obj 43 112 gemhead 50;
#X obj 493 84 tgl 15 0 empty empty empty 17 7 0 10 #fcfcfc #000000
#000000 0 1;
#X text 490 54 click to change pix_object;
#X obj 626 -50 inlet uniforms;
#X obj 404 344 t a b;
#N canvas 514 187 1061 782 pix2sig~ 0;
#X obj 779 52 inlet gem;
#X obj 643 501 outlet gem;
#X obj 879 49 inlet~ sync;
#X obj 851 482 pix_pix2sig~ \; mode waterfall 0;
#X obj 939 612 outlet~ im;
#X obj 1015 615 outlet~ mag;
#X obj 648 161 spigot;
#X obj 546 15 r enable_crossfade;
#X obj 779 119 t a a;
#X obj 553 435 pix_pix2sig~ \; mode waterfall 0;
#X obj 545 44 t f f f;
#X msg 728 315 mode waterfall \$1;
#X obj 295 31 inlet position;
#X msg 285 456 mode waterfall \$1;
#X obj 285 431 spigot;
#X obj 726 696 outlet~ main;
#X obj 600 687 *~ 0;
#X obj 728 552 *~ 1;
#X obj 754 429 == 0;
#X obj 226 229 realtime;
#X obj 248 200 t b b;
#X msg 106 376 start;
#X msg 197 483 stop;
#X obj 158 632 - 1;
#X obj 158 655 * -1;
#X obj 107 556 t f f;
#X obj 607 633 *~;
#X obj 572 633 *~;
#X obj 287 381 f;
#X floatatom 287 405 5 0 0 0 - - - 0;
#X obj 295 52 t f f f;
#X obj 600 663 +~;
#X obj 111 511 hsl 128 15 0 1 0 0 empty empty empty -2 -8 0 10 #fcfcfc
#000000 #000000 0 1;
#X floatatom 159 683 5 0 0 0 - - - 0;
#X floatatom 99 694 10 0 0 0 - - - 0;
#X obj 102 454 for++ 0 1 2 0.01;
#X obj 177 258 t b f f;
#X obj 204 308 spigot;
#X obj 255 308 sel 0;
#X obj 253 551 sqrt 2;
#X obj 201 367 / 100;
#X obj 718 238 f;
#X obj 105 418 t a b b;
#X obj 490 233 spigot;
#X obj 531 280 == 0;
#X obj 615 342 spigot;
#X floatatom 755 260 5 0 0 0 - - - 0;
#X obj 256 276 <= 500;
#X obj 253 334 500;
#X connect 0 0 8 0;
#X connect 3 0 1 0;
#X connect 3 1 17 0;
#X connect 3 1 26 0;
#X connect 3 2 4 0;
#X connect 3 3 5 0;
#X connect 6 0 9 0;
#X connect 7 0 10 0;
#X connect 8 0 3 0;
#X connect 8 1 6 0;
#X connect 9 1 27 0;
#X connect 10 0 16 1;
#X connect 10 0 18 0;
#X connect 10 1 14 1;
#X connect 10 2 6 1;
#X connect 10 2 44 0;
#X connect 10 2 43 1;
#X connect 11 0 3 0;
#X connect 12 0 30 0;
#X connect 13 0 9 0;
#X connect 14 0 13 0;
#X connect 16 0 15 0;
#X connect 17 0 15 0;
#X connect 18 0 17 1;
#X connect 19 0 36 0;
#X connect 20 0 19 0;
#X connect 20 1 19 1;
#X connect 21 0 42 0;
#X connect 22 0 35 0;
#X connect 23 0 24 0;
#X connect 24 0 27 1;
#X connect 24 0 33 0;
#X connect 25 0 34 0;
#X connect 25 1 23 0;
#X connect 26 0 31 1;
#X connect 27 0 31 0;
#X connect 28 0 29 0;
#X connect 29 0 14 0;
#X connect 30 0 28 1;
#X connect 30 1 20 0;
#X connect 30 2 45 0;
#X connect 30 2 41 1;
#X connect 31 0 16 0;
#X connect 32 0 25 0;
#X connect 34 0 26 1;
#X connect 35 0 32 0;
#X connect 35 1 22 0;
#X connect 36 0 21 0;
#X connect 36 1 37 0;
#X connect 36 2 47 0;
#X connect 37 0 40 0;
#X connect 38 0 48 0;
#X connect 40 0 35 2;
#X connect 41 0 11 0;
#X connect 41 0 46 0;
#X connect 42 0 35 0;
#X connect 42 1 43 0;
#X connect 42 2 28 0;
#X connect 43 0 41 0;
#X connect 44 0 45 1;
#X connect 45 0 11 0;
#X connect 47 0 37 1;
#X connect 47 0 38 0;
#X connect 48 0 40 0;
#X restore 404 439 pd pix2sig~;
#X obj 318 191 t a a;
#X msg 318 219 \$2;
#X obj 200 2 r read_pos;
#X obj 260 257 *;
#X obj 260 283 round;
#X obj 258 188 * -1;
#X obj 260 210 + 4;
#X obj 260 234 / 8;
#X obj 42 217 alpha;
#X obj 40 243 color 1 1 1 0.5;
#X obj 41 378 rectangle 4 0.01;
#N canvas 991 515 450 300 blocksize 0;
#X obj 21 24 inlet;
#X msg 35 229 dimen \$1 \$2;
#X obj 35 254 outlet gem;
#X obj 200 263 outlet audio;
#X obj 194 139 * 2;
#X obj 199 229 pack f f;
#X obj 32 154 t l f;
#X obj 18 56 unpack f f f;
#X obj 30 115 pack 0 64;
#X connect 0 0 7 0;
#X connect 1 0 2 0;
#X connect 4 0 5 0;
#X connect 5 0 3 0;
#X connect 6 0 1 0;
#X connect 6 1 4 0;
#X connect 7 0 8 0;
#X connect 7 1 8 1;
#X connect 7 2 5 1;
#X connect 8 0 6 0;
#X restore 514 6 pd blocksize;
#X obj 513 -67 route dimen;
#X msg 547 484 causal \$1;
#X obj 556 458 r causal;
#X obj 524 553 rifft~;
#X obj 406 -65 bang~;
#X obj 671 -147 inlet~ audio;
#X obj 45 58 r on;
#X obj 513 81 t a a;
#X obj 404 379 pix_snap 1024 128 \; type FLOAT;
#X obj 512 -91 r dimensions;
#X obj 520 656 outlet~;
#X obj 770 231 block~ 4096 8;
#X msg 987 392 overlap \$1;
#X obj 540 191 serial_rendering \$1 1024 128 \$2;
#X obj 621 458 r tolerance;
#X obj 621 482 / 1000;
#X msg 620 505 tolerance \$1;
#X obj 689 395 rotateXYZ 0 180 90;
#X obj 651 114 blackman~;
#X obj 520 631 blackman~;
#X obj 520 528 rtpghi~ 16 1e-06 0 blackman;
#X msg 770 207 set \$1 \$2 1;
#X obj 782 35 t l l l;
#X obj 891 192 unpack f f;
#X obj 71 -122 loadbang;
#X obj 68 -94 0;
#X text 49 509 todo: crossfade with pix-to-sig-objects 3 readout positions
next to each other (first try with two) \, only when enabled;
#X text 1030 128 maybe implement gaussian windwo (same as truncgauss01)
;
#X obj 44 276 translateXYZ 0 0 0;
#X obj 199 27 t f f;
#X obj 177 131 t f f;
#X obj 688 329 pix_texture \; quality 0 \; repeat 0 \; rectangle 0
;
#X obj 479 487 /~ 1.1;
#X obj 247 -124 loadbang;
#X obj 247 -68 s init_tol;
#X obj 248 -96 1e-07;
#X obj 68 -67 s initial_position;
#X obj 849 -90 blackman~;
#X obj 849 -133 sig~ 1;
#X obj 849 -65 tabsend~ window_calc;
#X obj 934 61 array define window_calc;
#X msg 864 -37 resize \$1;
#X obj 891 6 t b a;
#X obj 908 92 array sum window_calc;
#X text 917 110 window gain loss compensation;
#X floatatom 934 156 5 0 0 0 - - - 0;
#X connect 2 0 19 0;
#X connect 2 1 54 0;
#X connect 3 0 2 0;
#X connect 4 0 3 0;
#X connect 5 0 3 0;
#X connect 6 0 36 0;
#X connect 8 0 36 2;
#X connect 9 0 31 0;
#X connect 9 1 31 0;
#X connect 10 1 55 0;
#X connect 11 0 12 0;
#X connect 11 1 31 0;
#X connect 12 0 14 1;
#X connect 13 0 52 0;
#X connect 14 0 15 0;
#X connect 15 0 10 0;
#X connect 16 0 17 0;
#X connect 17 0 18 0;
#X connect 18 0 14 0;
#X connect 19 0 20 0;
#X connect 20 0 51 0;
#X connect 22 0 30 0;
#X connect 22 1 45 0;
#X connect 23 0 22 0;
#X connect 24 0 43 0;
#X connect 25 0 24 0;
#X connect 26 0 42 0;
#X connect 27 0 36 0;
#X connect 28 0 41 0;
#X connect 29 0 5 0;
#X connect 30 0 11 0;
#X connect 30 1 36 1;
#X connect 31 0 10 1;
#X connect 32 0 23 0;
#X connect 35 0 43 0;
#X connect 36 0 9 0;
#X connect 36 1 54 1;
#X connect 36 2 10 2;
#X connect 37 0 38 0;
#X connect 38 0 39 0;
#X connect 39 0 43 0;
#X connect 40 0 1 0;
#X connect 41 0 36 3;
#X connect 42 0 33 0;
#X connect 43 0 26 0;
#X connect 43 1 26 1;
#X connect 44 0 34 0;
#X connect 45 0 36 4;
#X connect 45 1 46 0;
#X connect 45 2 44 0;
#X connect 46 0 64 0;
#X connect 46 1 35 0;
#X connect 47 0 48 0;
#X connect 48 0 59 0;
#X connect 51 0 21 0;
#X connect 52 0 53 0;
#X connect 53 0 51 2;
#X connect 53 1 16 0;
#X connect 54 0 40 0;
#X connect 54 1 0 0;
#X connect 55 0 43 0;
#X connect 56 0 58 0;
#X connect 58 0 57 0;
#X connect 60 0 62 0;
#X connect 61 0 60 0;
#X connect 64 0 65 0;
#X connect 65 0 66 0;
#X connect 65 1 63 0;
#X connect 66 0 36 5;
#X connect 66 0 68 0;
#X coords 0 860 1 859 85 60 0;
