#N canvas 237 40 1275 860 12;
#X floatatom 801 583 5 0 0 0 - - - 0;
#X obj 661 605 square 4;
#X obj 661 582 rotateXYZ 0 180 90;
#X obj 50 398 t a a;
#X obj 51 376 alpha;
#X obj 97 375 tgl 20 0 empty empty empty 0 -10 0 12 #fcfcfc #000000
#000000 0 1;
#X obj 51 354 gemhead 50;
#X obj 500 288 tgl 15 0 empty empty empty 17 7 0 10 #fcfcfc #000000
#000000 0 1;
#X text 497 258 click to change pix_object;
#X obj 633 154 inlet uniforms;
#X obj 411 548 t a b;
#N canvas 890 118 622 300 pix2sig~ 0;
#X obj 67 52 inlet gem;
#X obj 77 136 outlet gem;
#X obj 281 49 inlet~ sync;
#X obj 76 79 pix_pix2sig~ \; mode waterfall 0;
#X obj 253 136 outlet~ im;
#X obj 166 136 outlet~ re;
#X obj 347 135 outlet~ mag;
#X connect 0 0 3 0;
#X connect 3 0 1 0;
#X connect 3 1 5 0;
#X connect 3 2 4 0;
#X connect 3 3 6 0;
#X restore 410 647 pd pix2sig~;
#X obj 325 395 t a a;
#X msg 284 696 mode waterfall \$1;
#X msg 325 423 \$2;
#X obj 240 207 r read_pos;
#X obj 284 624 *;
#X obj 284 649 round;
#X obj 278 514 * -1;
#X obj 280 536 + 4;
#X obj 280 560 / 8;
#X obj 286 673 + 0;
#X obj 49 421 alpha;
#X obj 49 446 color 1 1 1 0.5;
#X obj 48 582 rectangle 4 0.01;
#X obj 51 480 translateXYZ;
#X obj 241 232 t f f;
#N canvas 965 474 450 300 blocksize 0;
#X obj 33 67 inlet;
#X obj 33 100 pack 0 64;
#X msg 35 229 dimen \$1 \$2;
#X obj 35 254 outlet gem;
#X obj 216 222 outlet audio;
#X obj 33 125 t l f;
#X obj 140 174 * 2;
#X connect 0 0 1 0;
#X connect 1 0 5 0;
#X connect 2 0 3 0;
#X connect 5 0 2 0;
#X connect 5 1 6 0;
#X connect 6 0 4 0;
#X restore 533 214 pd blocksize;
#X obj 532 141 route dimen;
#X msg 490 697 causal \$1;
#X obj 490 670 r causal;
#X obj 501 777 rifft~;
#X obj 502 824 *~;
#X obj 489 144 bang~;
#X obj 873 55 inlet~ audio;
#X obj 54 309 r on;
#X obj 532 285 t a a;
#X obj 501 799 /~ 16;
#X obj 655 392 *~;
#X obj 683 356 tabreceive~ \$0.hann;
#X obj 559 827 tabreceive~ \$0.hann;
#X obj 1075 223 table \$0.hann;
#X msg 1076 252 cosinesum \$1 0.5 -0.5;
#X msg 1162 273 const 1;
#X obj 1077 277 s \$0.hann;
#X obj 411 583 pix_snap 1024 128 \; type FLOAT;
#X obj 531 117 r dimensions;
#X obj 503 859 outlet~;
#X obj 458 733 rtpghi~ 16 1e-06 0 hann;
#X obj 975 124 r overlap;
#X obj 871 343 pack f f;
#X obj 955 149 t b f;
#X obj 754 89 t f f;
#X obj 774 259 f;
#X obj 870 438 block~ 4096 8;
#X obj 957 176 f 8;
#X obj 953 202 t f f f;
#X msg 967 601 overlap \$1;
#X obj 870 369 t a a;
#X obj 754 111 t b b f;
#X obj 497 442 serial_rendering \$1 1024 128 \$2;
#X obj 661 505 pix_texture \; quality 0 \; repeat 1 \; rectangle 0
;
#X obj 386 730 print~;
#X obj 825 443 print;
#X msg 870 414 set \$1 \$2;
#X connect 2 0 1 0;
#X connect 3 0 22 0;
#X connect 3 1 61 0;
#X connect 4 0 3 0;
#X connect 5 0 4 0;
#X connect 6 0 4 0;
#X connect 7 0 60 0;
#X connect 9 0 60 2;
#X connect 10 0 45 0;
#X connect 10 1 45 0;
#X connect 11 1 48 0;
#X connect 12 0 14 0;
#X connect 12 1 45 0;
#X connect 13 0 11 0;
#X connect 14 0 16 1;
#X connect 15 0 26 0;
#X connect 16 0 17 0;
#X connect 17 0 21 0;
#X connect 18 0 19 0;
#X connect 19 0 20 0;
#X connect 20 0 16 0;
#X connect 21 0 13 0;
#X connect 22 0 23 0;
#X connect 23 0 25 0;
#X connect 25 0 24 0;
#X connect 26 0 25 2;
#X connect 26 1 18 0;
#X connect 27 0 36 0;
#X connect 27 1 52 0;
#X connect 28 0 27 0;
#X connect 29 0 48 0;
#X connect 30 0 29 0;
#X connect 31 0 37 0;
#X connect 32 0 47 0;
#X connect 33 0 60 0;
#X connect 34 0 38 0;
#X connect 35 0 6 0;
#X connect 36 0 12 0;
#X connect 36 1 60 1;
#X connect 37 0 32 0;
#X connect 38 0 60 3;
#X connect 39 0 38 1;
#X connect 40 0 32 1;
#X connect 42 0 44 0;
#X connect 43 0 44 0;
#X connect 45 0 11 0;
#X connect 46 0 28 0;
#X connect 48 0 31 0;
#X connect 48 1 31 1;
#X connect 49 0 51 0;
#X connect 50 0 58 0;
#X connect 51 0 53 0;
#X connect 51 0 55 0;
#X connect 51 1 55 1;
#X connect 52 0 59 0;
#X connect 52 1 42 0;
#X connect 53 0 50 0;
#X connect 55 0 56 0;
#X connect 56 0 37 1;
#X connect 56 1 57 0;
#X connect 56 2 50 1;
#X connect 57 0 48 0;
#X connect 58 0 64 0;
#X connect 58 1 60 4;
#X connect 59 0 53 0;
#X connect 59 1 55 0;
#X connect 59 2 53 1;
#X connect 60 0 10 0;
#X connect 60 1 61 1;
#X connect 60 2 11 1;
#X connect 61 0 2 0;
#X connect 61 1 0 0;
#X connect 64 0 54 0;
#X connect 64 0 63 0;
#X coords 0 860 1 859 85 60 0;
