#N canvas 382 91 1538 876 12;
#X floatatom 846 384 5 0 0 0 - - - 0;
#X obj 655 406 square 4;
#X obj 43 210 t a a;
#X obj 44 188 alpha;
#X obj 90 187 tgl 20 0 empty empty empty 0 -10 0 12 #fcfcfc #000000
#000000 0 1;
#X obj 44 166 gemhead 50;
#X obj 493 100 tgl 15 0 empty empty empty 17 7 0 10 #fcfcfc #000000
#000000 0 1;
#X text 490 70 click to change pix_object;
#X obj 626 -34 inlet uniforms;
#X obj 444 342 t a b;
#N canvas 763 135 1061 782 pix2sig~ 0;
#X obj 779 52 inlet gem;
#X obj 643 501 outlet gem;
#X obj 879 49 inlet~ sync;
#X obj 851 482 pix_pix2sig~ \; mode waterfall 0;
#X obj 939 612 outlet~ im;
#X obj 1015 615 outlet~ mag;
#X obj 632 113 spigot;
#X obj 546 15 r enable_crossfade;
#X obj 779 119 t a a;
#X obj 553 435 pix_pix2sig~ \; mode waterfall 0;
#X obj 545 44 t f f f;
#X msg 728 315 mode waterfall \$1;
#X obj 295 31 inlet position;
#X msg 293 624 mode waterfall \$1;
#X obj 293 599 spigot;
#X obj 726 696 outlet~ main;
#X obj 600 687 *~ 0;
#X obj 728 552 *~ 1;
#X obj 754 429 == 0;
#X obj 177 197 realtime;
#X obj 199 172 t b b;
#X msg 75 368 start;
#X msg 166 475 stop;
#X obj 158 632 - 1;
#X obj 158 655 * -1;
#X obj 79 550 t f f;
#X obj 607 633 *~;
#X obj 572 633 *~;
#X obj 284 365 f;
#X obj 600 663 +~;
#X obj 76 504 hsl 128 15 0 1 0 0 empty empty empty -2 -8 0 10 #fcfcfc
#000000 #000000 0 1;
#X floatatom 94 713 10 0 0 0 - - - 0;
#X obj 71 446 for++ 0 1 2 0.01;
#X obj 102 241 t b f f;
#X obj 122 275 spigot;
#X obj 173 275 sel 0;
#X obj 170 329 / 100;
#X obj 174 243 <= 500;
#X obj 171 301 500;
#X obj 316 365 f;
#X obj 74 410 t a b b;
#X obj 288 110 t f f f f;
#X floatatom 37 37 5 0 0 0 - - - 0;
#X floatatom 320 430 5 0 0 0 - - - 0;
#X floatatom 693 366 5 0 0 0 - - - 0;
#X connect 0 0 8 0;
#X connect 3 0 1 0;
#X connect 3 1 17 0;
#X connect 3 1 26 0;
#X connect 3 2 4 0;
#X connect 3 3 5 0;
#X connect 6 0 9 0;
#X connect 7 0 10 0;
#X connect 8 0 3 0;
#X connect 8 1 6 0;
#X connect 9 1 27 0;
#X connect 10 0 16 1;
#X connect 10 0 18 0;
#X connect 10 1 14 1;
#X connect 10 2 6 1;
#X connect 11 0 3 0;
#X connect 12 0 41 0;
#X connect 13 0 9 0;
#X connect 14 0 13 0;
#X connect 16 0 15 0;
#X connect 17 0 15 0;
#X connect 18 0 17 1;
#X connect 19 0 33 0;
#X connect 20 0 19 0;
#X connect 20 1 19 1;
#X connect 21 0 40 0;
#X connect 22 0 32 0;
#X connect 23 0 24 0;
#X connect 24 0 27 1;
#X connect 25 0 31 0;
#X connect 25 1 23 0;
#X connect 26 0 29 1;
#X connect 27 0 29 0;
#X connect 28 0 14 0;
#X connect 28 0 43 0;
#X connect 29 0 16 0;
#X connect 30 0 25 0;
#X connect 31 0 26 1;
#X connect 32 0 30 0;
#X connect 32 1 22 0;
#X connect 33 0 21 0;
#X connect 33 1 34 0;
#X connect 33 2 37 0;
#X connect 34 0 36 0;
#X connect 35 0 38 0;
#X connect 36 0 32 2;
#X connect 37 0 34 1;
#X connect 37 0 35 0;
#X connect 38 0 36 0;
#X connect 40 0 32 0;
#X connect 40 1 28 0;
#X connect 40 2 39 0;
#X connect 41 0 28 1;
#X connect 41 1 20 0;
#X connect 41 2 39 1;
#X connect 41 3 11 0;
#X connect 41 3 44 0;
#X restore 383 521 pd pix2sig~;
#X obj 318 207 t a a;
#X msg 318 235 \$2;
#X obj 234 -12 r read_pos;
#X obj 260 273 *;
#X obj 260 299 round;
#X obj 279 168 * -1;
#X obj 281 190 + 4;
#X obj 260 250 / 8;
#X obj 42 233 alpha;
#X obj 42 258 color 1 1 1 0.5;
#X obj 41 394 rectangle 4 0.01;
#N canvas 991 515 450 300 blocksize 0;
#X obj 21 24 inlet;
#X msg 35 229 dimen \$1 \$2;
#X obj 35 254 outlet gem;
#X obj 200 263 outlet audio;
#X obj 194 139 * 2;
#X obj 199 229 pack f f;
#X obj 32 154 t l f;
#X obj 18 56 unpack f f f;
#X obj 30 115 pack 0 64;
#X connect 0 0 7 0;
#X connect 1 0 2 0;
#X connect 4 0 5 0;
#X connect 5 0 3 0;
#X connect 6 0 1 0;
#X connect 6 1 4 0;
#X connect 7 0 8 0;
#X connect 7 1 8 1;
#X connect 7 2 5 1;
#X connect 8 0 6 0;
#X restore 526 26 pd blocksize;
#X obj 525 -47 route dimen;
#X msg 519 477 causal \$1;
#X obj 519 455 r causal;
#X obj 520 602 rifft~;
#X obj 482 -44 bang~;
#X obj 866 -133 inlet~ audio;
#X obj 45 74 r on;
#X obj 525 97 t a a;
#X obj 520 624 /~ 16;
#X obj 1069 116 tabreceive~ \$0.hann;
#X obj 1068 35 table \$0.hann;
#X msg 1069 64 cosinesum \$1 0.5 -0.5;
#X msg 1155 85 const 1;
#X obj 1070 89 s \$0.hann;
#X obj 524 -71 r dimensions;
#X obj 518 682 outlet~;
#X obj 784 210 block~ 4096 8;
#X msg 987 408 overlap \$1;
#X obj 490 254 serial_rendering \$1 1024 128 \$2;
#X obj 621 474 r tolerance;
#X obj 621 498 / 1000;
#X msg 620 521 tolerance \$1;
#X obj 650 661 blackman~;
#X msg 784 186 set \$1 \$2 1;
#X obj 654 317 pix_texture \; quality 0 \; repeat 0 \; rectangle 0
;
#X obj 730 127 t l l l;
#X obj 917 164 unpack f f;
#X obj 73 -132 loadbang;
#X obj 70 -77 s initial_position;
#X obj 70 -104 0;
#X text 49 584 todo: crossfade with pix-to-sig-objects 3 readout positions
next to each other (first try with two) \, only when enabled;
#X text 1030 144 maybe implement gaussian windwo (same as truncgauss01)
;
#X obj 44 292 translateXYZ 0 0 0;
#X obj 199 43 t f f;
#X obj 177 147 t f f;
#X msg 1064 274 start;
#X msg 1111 347 stop;
#X obj 1148 438 expr (exp($f1 * $f1 * 4 * log(0.01)));
#X obj 1148 412 / 512;
#X obj 1175 229 / 2;
#X obj 1229 299 - 1;
#X floatatom 1253 318 5 0 0 0 - - - 0;
#X obj 1161 310 - 512;
#X obj 1151 346 for++ -256 255 0 1;
#X obj 1117 572 array define \$0.gauss01;
#X msg 1074 530 resize \$1;
#X obj 926 201 t f f f;
#X obj 1129 478 t f b;
#X obj 1147 377 t f f;
#X obj 1198 466 +;
#X obj 1047 193 t b f f;
#X obj 1175 253 t f f f;
#X obj 1194 501 f;
#X obj 1152 531 tabwrite \$0.gauss01;
#X obj 676 164 tabreceive~ \$0.gauss01;
#X obj 520 654 *~;
#X obj 648 624 tabreceive~ \$0.gauss01;
#X obj 648 197 *~;
#X obj 520 544 rtpghi~ 16 1e-06 0 truncgauss01;
#X obj 129 723 route dimen;
#X obj 124 758 unpack;
#X obj 655 383 rotateXYZ 0 180 90;
#X obj 421 423 pix_snap 1024 128 \; type FLOAT;
#X connect 2 0 19 0;
#X connect 2 1 47 0;
#X connect 3 0 2 0;
#X connect 4 0 3 0;
#X connect 5 0 3 0;
#X connect 6 0 41 0;
#X connect 8 0 41 2;
#X connect 9 0 85 0;
#X connect 9 1 85 0;
#X connect 10 1 81 0;
#X connect 11 0 12 0;
#X connect 11 1 85 0;
#X connect 12 0 14 1;
#X connect 13 0 56 0;
#X connect 14 0 15 0;
#X connect 15 0 10 0;
#X connect 16 0 17 0;
#X connect 17 0 18 0;
#X connect 18 0 14 0;
#X connect 19 0 20 0;
#X connect 20 0 55 0;
#X connect 22 0 30 0;
#X connect 22 1 48 0;
#X connect 23 0 22 0;
#X connect 24 0 81 0;
#X connect 25 0 24 0;
#X connect 26 0 31 0;
#X connect 27 0 41 0;
#X connect 28 0 80 0;
#X connect 29 0 5 0;
#X connect 30 0 11 0;
#X connect 30 1 41 1;
#X connect 31 0 78 0;
#X connect 34 0 36 0;
#X connect 35 0 36 0;
#X connect 37 0 23 0;
#X connect 40 0 81 0;
#X connect 41 0 9 0;
#X connect 41 1 47 1;
#X connect 41 2 10 2;
#X connect 42 0 43 0;
#X connect 43 0 44 0;
#X connect 44 0 81 0;
#X connect 46 0 39 0;
#X connect 47 0 84 0;
#X connect 47 1 0 0;
#X connect 48 0 41 4;
#X connect 48 1 49 0;
#X connect 48 2 46 0;
#X connect 49 0 34 0;
#X connect 49 0 69 0;
#X connect 49 1 40 0;
#X connect 50 0 52 0;
#X connect 52 0 51 0;
#X connect 55 0 21 0;
#X connect 56 0 57 0;
#X connect 57 0 55 2;
#X connect 57 1 16 0;
#X connect 58 0 66 0;
#X connect 59 0 66 0;
#X connect 60 0 70 0;
#X connect 61 0 60 0;
#X connect 62 0 74 0;
#X connect 63 0 64 0;
#X connect 63 0 66 1;
#X connect 65 0 66 0;
#X connect 66 0 71 0;
#X connect 66 1 59 0;
#X connect 68 0 67 0;
#X connect 69 0 73 0;
#X connect 69 1 61 1;
#X connect 69 2 68 0;
#X connect 70 0 76 0;
#X connect 70 1 75 0;
#X connect 71 0 61 0;
#X connect 71 1 72 0;
#X connect 72 0 75 1;
#X connect 73 0 58 0;
#X connect 73 1 62 0;
#X connect 73 2 65 1;
#X connect 74 0 65 0;
#X connect 74 1 63 0;
#X connect 74 2 72 1;
#X connect 75 0 76 1;
#X connect 77 0 80 1;
#X connect 78 0 38 0;
#X connect 79 0 78 1;
#X connect 80 0 41 3;
#X connect 81 0 26 0;
#X connect 81 1 26 1;
#X connect 82 0 83 0;
#X connect 84 0 1 0;
#X connect 85 0 10 1;
#X coords 0 876 1 875 85 60 0;
