#N canvas 637 188 704 552 12;
#X declare -lib Gem;
#X obj 31 377 hsl 128 15 -3.99 3.99 0 1 empty empty Readout_Position
-2 -8 0 10 #fcfcfc #000000 #000000 2600 1;
#X obj 29 397 s read_pos, f 14;
#X floatatom 28 426 5 0 0 0 - - - 0;
#X obj 22 52 tgl 20 0 empty empty empty 0 -10 0 12 #fcfcfc #000000
#000000 0 1;
#X msg 22 109 \; pd dsp \$1;
#X obj 46 52 declare -lib Gem;
#N canvas 87 154 247 179 Gem.init 0;
#X obj 118 46 loadbang;
#X msg 118 81 reset;
#X obj 118 113 outlet;
#X connect 0 0 1 0;
#X connect 1 0 2 0;
#X restore 26 167 pd Gem.init;
#N canvas 690 294 682 322 gemwin 0;
#X obj 102 122 tgl 15 0 \$0-gemstart \$0-gemstart empty 17 7 0 10 #fcfcfc
#000000 #000000 0 1;
#X obj 102 161 r \$0-gemstart;
#X obj 102 182 select 1 0;
#X msg 102 214 create \, 1;
#X msg 177 215 destroy;
#X obj 102 239 t a;
#X obj 318 54 inlet;
#X obj 318 255 gemwin;
#X obj 318 100 t a a;
#X obj 318 287 outlet;
#X obj 350 128 route create destroy;
#X obj 350 150 t b;
#X msg 350 172 1;
#X obj 390 150 t b;
#X msg 390 172 0;
#X obj 350 195 t f;
#X msg 350 219 set \$1;
#X text 118 122 rendering;
#X connect 1 0 2 0;
#X connect 2 0 3 0;
#X connect 2 1 4 0;
#X connect 3 0 5 0;
#X connect 4 0 5 0;
#X connect 5 0 8 0;
#X connect 6 0 8 0;
#X connect 7 0 9 0;
#X connect 8 0 7 0;
#X connect 8 1 10 0;
#X connect 10 0 11 0;
#X connect 10 1 13 0;
#X connect 11 0 12 0;
#X connect 12 0 15 0;
#X connect 13 0 14 0;
#X connect 14 0 15 0;
#X connect 15 0 16 0;
#X connect 16 0 0 0;
#X coords 0 -1 1 1 85 40 1 100 100;
#X restore 22 189 pd gemwin;
#X obj 20 86 t f f;
#X obj 101 83 s on;
#X msg 217 121 0 x \$1;
#X msg 271 123 0 sigma \$1;
#X msg 358 122 0 size \$1;
#X floatatom 276 78 5 0 0 0 - - - 0;
#X floatatom 359 88 5 0 0 0 - - - 0;
#X floatatom 234 90 5 0 0 0 - - - 0;
#X msg 342 179 0;
#X obj 167 20 loadbang;
#X obj 673 243 tgl 20 0 empty empty empty 0 -10 0 12 #fcfcfc #000000
#000000 0 1;
#N canvas 109 106 277 420 audioplayback 0;
#X obj 89 229 readsf~;
#X obj 91 277 *~ 0;
#X obj 93 152 openpanel;
#X msg 93 197 open \$1 \, 1;
#X obj 156 229 t b;
#X obj 93 175 symbol;
#X obj 94 126 inlet;
#X obj 141 125 inlet;
#X obj 90 308 outlet~;
#X connect 0 0 1 0;
#X connect 0 1 4 0;
#X connect 1 0 8 0;
#X connect 2 0 5 0;
#X connect 3 0 0 0;
#X connect 4 0 5 0;
#X connect 5 0 3 0;
#X connect 6 0 2 0;
#X connect 7 0 1 1;
#X restore 565 270 pd audioplayback;
#X msg 565 249 bang;
#X obj 569 385 *~;
#X obj 598 314 vsl 15 70 0 20 0 0 empty empty empty 0 -9 0 10 #fcfcfc
#000000 #000000 0 1;
#X msg 359 144 0 direc 1;
#X obj 549 34 inlet~;
#X obj 239 435 outlet~;
#X obj 153 221 s dimensions;
#X msg 163 197 dimen 512 128;
#X obj 235 255 GOS 2 0, f 24;
#X connect 0 0 1 0;
#X connect 0 0 2 0;
#X connect 3 0 8 0;
#X connect 6 0 7 0;
#X connect 8 0 4 0;
#X connect 8 1 9 0;
#X connect 10 0 28 0;
#X connect 11 0 28 0;
#X connect 13 0 11 0;
#X connect 14 0 12 0;
#X connect 15 0 10 0;
#X connect 16 0 28 1;
#X connect 17 0 27 0;
#X connect 18 0 19 1;
#X connect 19 0 21 0;
#X connect 20 0 19 0;
#X connect 21 0 28 2;
#X connect 22 0 21 1;
#X connect 23 0 28 0;
#X connect 27 0 26 0;
#X connect 28 0 25 0;
