#N canvas 599 145 748 489 12;
#X declare -lib Gem;
#X declare -lib rtpghi~;
#X obj 39 51 cnv 15 200 200 empty empty Load\\\ Plugin 20 12 0 18 #c6ffc7
#404040 0;
#N canvas 522 460 1276 788 selector 0;
#X msg 43 83 dir;
#X obj 42 106 pdcontrol;
#X msg 45 344 \; pd-edge_detection.pd vis 1;
#X obj 318 24 r gauss;
#X msg 320 77 dir;
#X obj 320 99 pdcontrol;
#X msg 282 343 \; pd-gauss_blur.pd vis 1;
#X obj 39 16 r edge;
#X obj 39 45 sel 1 0;
#X obj 321 49 sel 1 0;
#X msg 381 264 \; pd-gauss_blur.pd menuclose \; pd-gauss_blur_uniforms.pd
menuclose;
#X msg 64 263 \; pd-edge_detection.pd menuclose \; pd-edge_detection_uniforms.pd
menuclose;
#X msg 43 174 \; pd open edge_detection.pd \$1 \; pd-edge_detection.pd
vis 0 \; pd open edge_detection_uniforms.pd \$1 \; pd-edge_detection_uniforms.pd
vis 1;
#X msg 334 171 \; pd open gauss_blur.pd \$1 \; pd-gauss_blur.pd vis
0 \; pd open gauss_blur_uniforms.pd \$1 \; pd-gauss_blur_uniforms.pd
vis 1;
#X msg 942 76 dir;
#X obj 942 98 pdcontrol;
#X obj 943 48 sel 1 0;
#X obj 940 23 r warp;
#X msg 931 166 \; pd open warp.pd \$1 \; pd-warp.pd vis 0 \; pd open
warp_uniforms.pd \$1 \; pd-warp_uniforms.pd vis 1;
#X msg 975 341 \; pd-warp.pd vis 1;
#X msg 978 259 \; pd-warp.pd menuclose \; pd-warp_uniforms.pd menuclose
;
#X msg 65 448 dir;
#X obj 65 470 pdcontrol;
#X obj 66 420 sel 1 0;
#X msg 58 517 \; pd open kernel.pd \$1 \; pd-kernel.pd vis 0 \; pd
open kernel_uniforms.pd \$1 \; pd-kernel_uniforms.pd vis 1;
#X msg 101 631 \; pd-kernel.pd menuclose \; pd-kernel_uniforms.pd menuclose
;
#X msg 98 713 \; pd-kernel.pd vis 1;
#X obj 63 395 r kernel;
#N canvas 87 154 247 179 Gem.init 0;
#X obj 118 46 loadbang;
#X msg 118 81 reset;
#X obj 118 113 outlet;
#X connect 0 0 1 0;
#X connect 1 0 2 0;
#X restore 577 605 pd Gem.init;
#N canvas 690 294 682 322 gemwin 0;
#X obj 102 122 tgl 15 0 \$0-gemstart \$0-gemstart empty 17 7 0 10 #fcfcfc
#000000 #000000 0 1;
#X obj 102 161 r \$0-gemstart;
#X obj 102 182 select 1 0;
#X msg 102 214 create \, 1;
#X msg 177 215 destroy;
#X obj 102 239 t a;
#X obj 318 54 inlet;
#X obj 318 255 gemwin;
#X obj 318 100 t a a;
#X obj 318 287 outlet;
#X obj 350 128 route create destroy;
#X obj 350 150 t b;
#X msg 350 172 1;
#X obj 390 150 t b;
#X msg 390 172 0;
#X obj 350 195 t f;
#X msg 350 219 set \$1;
#X text 118 122 rendering;
#X connect 1 0 2 0;
#X connect 2 0 3 0;
#X connect 2 1 4 0;
#X connect 3 0 5 0;
#X connect 4 0 5 0;
#X connect 5 0 8 0;
#X connect 6 0 8 0;
#X connect 7 0 9 0;
#X connect 8 0 7 0;
#X connect 8 1 10 0;
#X connect 10 0 11 0;
#X connect 10 1 13 0;
#X connect 11 0 12 0;
#X connect 12 0 15 0;
#X connect 13 0 14 0;
#X connect 14 0 15 0;
#X connect 15 0 16 0;
#X connect 16 0 0 0;
#X coords 0 -1 1 1 85 40 1 100 100;
#X restore 577 632 pd gemwin;
#X obj 584 394 s \$0-gemstart;
#X msg 816 313 dir;
#X obj 816 335 pdcontrol;
#X obj 817 285 sel 1 0;
#X msg 852 496 \; pd-warp.pd menuclose \; pd-warp_uniforms.pd menuclose
;
#X msg 849 578 \; pd-mirror.pd vis 1;
#X obj 814 260 r mirror;
#X msg 805 403 \; pd open mirror.pd \$1 \; pd-mirror.pd vis 0 \; pd
open mirror_uniforms.pd \$1 \; pd-mirror_uniforms.pd vis 1;
#X obj 570 24 loadbang;
#X obj 570 80 s init_tol;
#X obj 571 52 1e-07;
#X connect 0 0 1 0;
#X connect 1 0 12 0;
#X connect 3 0 9 0;
#X connect 3 0 30 0;
#X connect 4 0 5 0;
#X connect 5 0 13 0;
#X connect 7 0 8 0;
#X connect 7 0 30 0;
#X connect 8 0 0 0;
#X connect 8 1 11 0;
#X connect 9 0 4 0;
#X connect 9 1 10 0;
#X connect 14 0 15 0;
#X connect 15 0 18 0;
#X connect 16 0 14 0;
#X connect 16 1 20 0;
#X connect 17 0 16 0;
#X connect 17 0 30 0;
#X connect 21 0 22 0;
#X connect 22 0 24 0;
#X connect 23 0 21 0;
#X connect 23 1 25 0;
#X connect 27 0 23 0;
#X connect 27 0 30 0;
#X connect 28 0 29 0;
#X connect 31 0 32 0;
#X connect 32 0 37 0;
#X connect 33 0 31 0;
#X connect 33 1 34 0;
#X connect 36 0 33 0;
#X connect 36 0 30 0;
#X connect 38 0 40 0;
#X connect 40 0 39 0;
#X restore 438 132 pd selector;
#X obj 433 388 vsl 15 70 0 1 0 0 vol empty Master_Vol 0 -9 0 10 #fcfcfc
#000000 #000000 0 1;
#N canvas 113 586 450 300 master 0;
#X obj 38 224 *~;
#X obj 38 256 dac~;
#X obj 27 31 catch~ sig;
#X obj 68 224 r vol;
#X obj 259 201 env~;
#X floatatom 268 240 5 0 0 0 - - - 0;
#X obj 42 140 *~;
#X obj 203 28 r~ adsr;
#X obj 262 28 r adsr_act;
#X obj 202 70 *~ 0;
#X obj 202 97 +~ 1;
#X obj 260 50 t f f;
#X obj 272 91 == 0;
#X connect 0 0 1 0;
#X connect 0 0 1 1;
#X connect 0 0 4 0;
#X connect 2 0 6 0;
#X connect 3 0 0 1;
#X connect 4 0 5 0;
#X connect 6 0 0 0;
#X connect 7 0 9 0;
#X connect 8 0 11 0;
#X connect 9 0 10 0;
#X connect 10 0 6 1;
#X connect 11 0 9 1;
#X connect 11 1 12 0;
#X connect 12 0 10 1;
#X restore 455 387 pd master;
#X obj 41 436 hsl 128 15 -3.99 3.99 0 1 read_pos empty Readout_Position
-2 -8 0 10 #fcfcfc #000000 #000000 2600 1;
#X obj 342 55 tgl 20 0 on empty DSP-START 0 -10 0 12 #fcfcfc #000000
#000000 0 1;
#X msg 342 84 \; pd dsp \$1;
#X obj 39 31 declare -lib Gem;
#N canvas 295 333 450 300 audio 0;
#X obj 231 57 tgl 20 0 empty empty empty 0 -10 0 12 #fcfcfc #000000
#000000 0 1;
#N canvas 109 106 277 420 audioplayback 0;
#X obj 89 229 readsf~;
#X obj 91 277 *~ 0;
#X obj 93 152 openpanel;
#X msg 93 197 open \$1 \, 1;
#X obj 156 229 t b;
#X obj 93 175 symbol;
#X obj 94 126 inlet;
#X obj 141 125 inlet;
#X obj 90 308 outlet~;
#X connect 0 0 1 0;
#X connect 0 1 4 0;
#X connect 1 0 8 0;
#X connect 2 0 5 0;
#X connect 3 0 0 0;
#X connect 4 0 5 0;
#X connect 5 0 3 0;
#X connect 6 0 2 0;
#X connect 7 0 1 1;
#X restore 32 73 pd audioplayback;
#X obj 31 28 inlet;
#X obj 28 205 s~ audio_in;
#X obj 232 28 inlet;
#X obj 81 141 *~;
#X obj 184 32 inlet;
#X obj 296 33 inlet~ audio_in;
#X connect 0 0 1 1;
#X connect 1 0 5 0;
#X connect 2 0 1 0;
#X connect 4 0 0 0;
#X connect 5 0 3 0;
#X connect 6 0 5 1;
#X connect 7 0 5 0;
#X restore 439 110 pd audio;
#X f 11;
#X obj 438 92 bng 15 250 50 0 empty empty empty 17 7 0 10 #fcfcfc #000000
#000000;
#X obj 488 53 tgl 15 0 empty empty Play 17 7 0 10 #fcfcfc #000000 #000000
0 1;
#X obj 459 52 vsl 15 50 0 1 0 0 empty empty In-Vol 0 -9 0 10 #fcfcfc
#000000 #000000 0 1;
#X floatatom 455 442 5 0 0 0 - - - 0;
#X obj 455 420 r vol;
#N canvas 266 304 450 300 dimensions 0;
#X obj 73 132 s dimensions;
#X msg 74 109 dimen \$1 \$2;
#X obj 73 86 pack f f;
#X obj 74 61 inlet;
#X obj 229 137 s overlap;
#X obj 233 61 inlet ol;
#X connect 1 0 0 0;
#X connect 2 0 1 0;
#X connect 3 0 2 0;
#X connect 5 0 4 0;
#X restore 284 192 pd dimensions;
#X obj 250 233 tgl 15 0 freeze empty Freeze\\\ the\\\ Spectrum 17 7
0 10 #fcfcfc #000000 #000000 0 1;
#X obj 67 106 tgl 20 0 edge empty Edge_Detection -20 -10 0 10 #bbbbbb
#000000 #000000 0 1;
#X obj 174 105 tgl 20 0 gauss empty Gaussian_Blur -20 -10 0 10 #ff8300
#000000 #000000 0 1;
#X obj 131 133 tgl 20 0 warp empty Warp -10 -10 0 10 #fcb6ff #000000
#000000 0 1;
#X obj 68 175 tgl 20 0 kernel empty Draw\\\ Blur\\\ Kernel -20 -10
0 10 #faff00 #000000 #000000 0 1;
#X obj 248 56 r all_loaded;
#X obj 249 76 t b b;
#X obj 249 100 0;
#X obj 38 306 tgl 15 0 empty empty empty 17 7 0 10 #fcfcfc #000000
#000000 0 1;
#N canvas 944 481 510 292 adsr 1;
#X obj 45 81 vsl 15 128 0.1 1 0 1 a_l empty Level 0 -9 0 10 #ff8300
#000000 #000000 12700 1;
#X obj 170 81 vsl 15 128 0.1 1 0 1 s_l empty Level 0 -9 0 10 #ff8300
#000000 #000000 7500 0;
#X obj 406 82 vsl 15 128 0 1 0 0 r_l empty Level 0 -9 0 10 #ff8300
#000000 #000000 0 0;
#X obj 79 82 vsl 15 128 1 200 0 1 a_t empty Time 0 -9 0 10 #00faff
#000000 #000000 0 0;
#X obj 210 79 vsl 15 128 1 600 0 1 s_t empty Time 0 -9 0 10 #00faff
#000000 #000000 100 0;
#X obj 441 82 vsl 15 128 1 600 0 1 r_t empty Time 0 -9 0 10 #00faff
#000000 #000000 4800 0;
#X obj 298 83 vsl 15 128 1 200 0 1 r_d empty Time 0 -9 0 10 #c6ffc7
#000000 #000000 100 0;
#X text 46 46 Attack;
#X text 167 45 Decay;
#X text 403 42 Release;
#X text 279 46 Sustain;
#X restore 183 434 pd adsr;
#X obj 240 435 tgl 17 0 adsr_act empty Turn\\\ on\\\ Amp-Envelope 17
7 0 10 #fcfcfc #000000 #000000 0 1;
#X floatatom 99 298 5 0 0 2 BPM - - 0;
#N canvas 61 38 1512 856 sequencer 0;
#X obj 31 226 / 100;
#X obj 35 251 - 4;
#X obj 26 57 metro 150;
#X obj 7 172 random 800;
#X obj 23 553 s read_pos;
#X obj 115 201 / 8;
#X obj 1205 420 vline~;
#X msg 1206 394 \$1 \$2 \, \$3 \$4 \$5 \, \$6 \$7 \$8;
#X obj 1204 448 s~ adsr;
#X obj 1204 342 pack f f f f f f f f;
#X obj 1169 279 1;
#X obj 1325 277 0;
#X obj 1171 243 t b b b b b b b b;
#X obj 940 19 inlet start sequencer;
#X obj 1425 25 inlet metro2;
#X obj 1656 31 inlet sequence_len;
#X obj 1157 88 metro 200;
#X obj 1158 104 f 0;
#X obj 1202 127 + 1;
#X obj 1157 127 t f f;
#X obj 1387 276 5;
#X obj 1202 278 40;
#X obj 1233 277 0.3;
#X obj 1263 277 60;
#X obj 1358 277 40;
#X obj 1394 148 r a_l;
#X obj 1445 147 r a_t;
#X obj 1498 146 r s_l;
#X obj 1548 146 r s_t;
#X obj 1647 146 r r_l;
#X obj 1699 144 r r_t;
#X obj 1749 143 r r_d;
#X obj 1548 247 +;
#X obj 1548 220 f;
#X obj 1578 174 t b f;
#X obj 1206 367 t a a;
#X obj 273 732 expr ($f1 + $f2 + $f3);
#X msg 274 687 \$2 \$4 \$7;
#X obj 273 710 unpack f f f;
#X obj 272 758 t b f;
#X obj 54 707 samplerate~;
#X obj 32 748 /;
#X obj 23 708 1;
#X obj 23 682 t b b f;
#X obj 32 772 *;
#X text 90 772 time in ms per block;
#X obj 32 814 t f f;
#X obj 20 603 r dimensions;
#X obj 20 650 unpack f f;
#X obj 20 628 route dimen;
#X obj 213 876 div;
#X obj 142 318 t f f;
#X obj 23 531 spigot;
#X obj 40 480 t f f;
#X obj 246 796 f;
#X obj 213 900 / 256;
#X obj 63 300 - 1, f 4;
#X obj 30 297 f;
#X obj 32 353 t f f;
#X obj 40 381 mod 8;
#X obj 40 404 sel 0;
#X obj 78 453 0;
#X obj 42 426 t b b;
#X obj 41 8 1;
#X obj 74 9 0;
#X obj 32 793 * 2;
#X obj 714 178 r one;
#X obj 677 207 spigot;
#X obj 699 235 spigot;
#X obj 736 206 r two;
#X obj 728 258 spigot;
#X obj 765 229 r three;
#X obj 760 284 spigot;
#X obj 797 255 r four;
#X obj 797 306 spigot;
#X obj 834 277 r five;
#X obj 820 328 spigot;
#X obj 856 299 r six;
#X obj 858 351 spigot;
#X obj 896 325 r seven;
#X obj 887 375 spigot;
#X obj 924 349 r eight;
#X obj 877 207 spigot;
#X obj 914 181 r nine;
#X obj 905 234 spigot;
#X obj 941 208 r ten;
#X obj 925 264 spigot;
#X obj 960 238 r eleven;
#X obj 942 289 spigot;
#X obj 982 264 r twelve;
#X obj 964 316 spigot;
#X obj 1001 291 r thirteen;
#X obj 994 337 spigot;
#X obj 1033 312 r fourteen;
#X obj 1010 366 spigot;
#X obj 1049 341 r fifteen;
#X obj 1035 397 spigot;
#X obj 1075 372 r sixteen;
#X obj 1158 195 t f f;
#X obj 1158 218 s step;
#X obj 1298 39 * 1000;
#X obj 1134 24 r division;
#X obj 1216 35 f;
#X obj 1143 53 t b f;
#X obj 1217 64 / 4;
#X obj 635 150 sel 0 1 2 3 4 5 6 7 8 9 10 11 12 13 14 15, f 69;
#X obj 1425 48 t b f;
#X obj 1425 73 60;
#X obj 1563 308 +;
#X obj 1717 232 t b f;
#X obj 1564 283 f;
#X obj 1580 90 r a_t;
#X obj 1158 157 mod 16;
#X obj 1425 99 / 120;
#X obj 1296 276 10;
#X obj 72 504 >=;
#X obj 306 147 spigot;
#X obj 545 28 r no_random;
#X obj 89 229 t f f;
#X obj 202 131 spigot;
#X obj 111 83 t b b;
#X obj 366 149 t f b;
#X obj 208 686 t b f f;
#X obj 136 388 print;
#X obj 155 202 t b f;
#X obj 167 254 /;
#X obj 173 16 r dimensions;
#X obj 172 65 unpack f f;
#X obj 368 123 == 0;
#X obj 155 225 8;
#X floatatom 37 37 5 0 0 0 - - - 0;
#X obj 173 41 route dimen;
#X obj 91 165 t f f f f;
#X obj 306 403 mod 128;
#X obj 351 522 s read_pos;
#X obj 145 280 t f f;
#X obj 278 286 / 8;
#X obj 351 431 / 16;
#X obj 352 497 - 4;
#X obj 352 223 - 1;
#X obj 309 223 f 0;
#X obj 483 186 r seq_dir;
#X obj 484 235 == 1;
#X obj 485 209 t f f;
#X obj 524 235 == 0;
#X obj 238 245 t f f f;
#X obj 348 298 spigot;
#X obj 306 432 t b f;
#X obj 386 225 + 1;
#X obj 412 296 spigot;
#X obj 307 380 t f f f;
#X obj 544 50 t b f f;
#X connect 0 0 1 0;
#X connect 1 0 51 0;
#X connect 2 0 120 0;
#X connect 3 0 0 0;
#X connect 5 0 118 0;
#X connect 6 0 8 0;
#X connect 7 0 6 0;
#X connect 9 0 35 0;
#X connect 10 0 9 0;
#X connect 11 0 9 5;
#X connect 12 0 10 0;
#X connect 12 1 21 0;
#X connect 12 2 22 0;
#X connect 12 3 23 0;
#X connect 12 4 114 0;
#X connect 12 5 11 0;
#X connect 12 6 24 0;
#X connect 12 7 20 0;
#X connect 13 0 16 0;
#X connect 14 0 106 0;
#X connect 15 0 112 1;
#X connect 16 0 17 0;
#X connect 17 0 19 0;
#X connect 18 0 17 1;
#X connect 19 0 112 0;
#X connect 19 1 18 0;
#X connect 20 0 9 7;
#X connect 21 0 9 1;
#X connect 22 0 9 2;
#X connect 23 0 9 3;
#X connect 24 0 9 6;
#X connect 25 0 10 1;
#X connect 26 0 21 1;
#X connect 27 0 22 1;
#X connect 28 0 23 1;
#X connect 28 0 33 1;
#X connect 28 0 32 0;
#X connect 29 0 11 1;
#X connect 30 0 24 1;
#X connect 31 0 109 0;
#X connect 32 0 110 1;
#X connect 32 0 110 0;
#X connect 33 0 32 0;
#X connect 34 0 33 0;
#X connect 34 1 32 1;
#X connect 35 0 37 0;
#X connect 35 1 7 0;
#X connect 36 0 39 0;
#X connect 37 0 38 0;
#X connect 38 0 36 0;
#X connect 38 1 36 1;
#X connect 38 2 36 2;
#X connect 39 0 54 0;
#X connect 39 1 50 0;
#X connect 40 0 41 1;
#X connect 41 0 44 0;
#X connect 42 0 41 0;
#X connect 43 0 42 0;
#X connect 43 1 40 0;
#X connect 43 2 44 1;
#X connect 44 0 65 0;
#X connect 46 0 50 1;
#X connect 46 1 2 1;
#X connect 47 0 49 0;
#X connect 48 0 43 0;
#X connect 48 1 54 1;
#X connect 49 0 48 0;
#X connect 50 0 55 0;
#X connect 51 0 115 1;
#X connect 51 1 57 1;
#X connect 52 0 4 0;
#X connect 53 0 52 0;
#X connect 53 1 115 0;
#X connect 54 0 55 1;
#X connect 55 0 122 0;
#X connect 56 0 57 1;
#X connect 57 0 56 0;
#X connect 57 0 58 0;
#X connect 58 0 59 0;
#X connect 58 1 53 0;
#X connect 59 0 60 0;
#X connect 60 0 62 0;
#X connect 61 0 57 1;
#X connect 61 0 64 0;
#X connect 62 0 3 0;
#X connect 62 1 61 0;
#X connect 63 0 2 0;
#X connect 64 0 2 0;
#X connect 65 0 46 0;
#X connect 66 0 67 1;
#X connect 67 0 12 0;
#X connect 68 0 12 0;
#X connect 69 0 68 1;
#X connect 70 0 12 0;
#X connect 71 0 70 1;
#X connect 72 0 12 0;
#X connect 73 0 72 1;
#X connect 74 0 12 0;
#X connect 75 0 74 1;
#X connect 76 0 12 0;
#X connect 77 0 76 1;
#X connect 78 0 12 0;
#X connect 79 0 78 1;
#X connect 80 0 12 0;
#X connect 81 0 80 1;
#X connect 82 0 12 0;
#X connect 83 0 82 1;
#X connect 84 0 12 0;
#X connect 85 0 84 1;
#X connect 86 0 12 0;
#X connect 87 0 86 1;
#X connect 88 0 12 0;
#X connect 89 0 88 1;
#X connect 90 0 12 0;
#X connect 91 0 90 1;
#X connect 92 0 12 0;
#X connect 93 0 92 1;
#X connect 94 0 12 0;
#X connect 95 0 94 1;
#X connect 96 0 12 0;
#X connect 97 0 96 1;
#X connect 98 0 99 0;
#X connect 98 1 105 0;
#X connect 100 0 102 1;
#X connect 100 0 104 0;
#X connect 101 0 103 0;
#X connect 102 0 104 0;
#X connect 103 0 102 0;
#X connect 103 1 104 1;
#X connect 104 0 16 1;
#X connect 105 0 67 0;
#X connect 105 1 68 0;
#X connect 105 2 70 0;
#X connect 105 3 72 0;
#X connect 105 4 74 0;
#X connect 105 5 76 0;
#X connect 105 6 78 0;
#X connect 105 7 80 0;
#X connect 105 8 82 0;
#X connect 105 9 84 0;
#X connect 105 10 86 0;
#X connect 105 11 88 0;
#X connect 105 12 90 0;
#X connect 105 13 92 0;
#X connect 105 14 94 0;
#X connect 105 15 96 0;
#X connect 106 0 107 0;
#X connect 106 1 113 1;
#X connect 107 0 113 0;
#X connect 108 0 20 1;
#X connect 109 0 110 0;
#X connect 109 1 108 1;
#X connect 110 0 108 0;
#X connect 111 0 34 0;
#X connect 111 0 114 1;
#X connect 112 0 98 0;
#X connect 113 0 100 0;
#X connect 114 0 9 4;
#X connect 115 0 52 1;
#X connect 116 0 140 0;
#X connect 117 0 151 0;
#X connect 118 0 0 1;
#X connect 119 0 57 0;
#X connect 120 0 119 0;
#X connect 120 1 116 0;
#X connect 121 0 116 1;
#X connect 122 0 63 0;
#X connect 122 1 59 1;
#X connect 124 0 129 0;
#X connect 124 1 125 1;
#X connect 125 0 135 0;
#X connect 126 0 131 0;
#X connect 127 1 132 0;
#X connect 128 0 119 1;
#X connect 129 0 125 0;
#X connect 131 0 127 0;
#X connect 132 0 3 1;
#X connect 132 1 5 0;
#X connect 132 2 124 0;
#X connect 132 3 145 0;
#X connect 133 0 147 0;
#X connect 135 0 56 1;
#X connect 136 0 137 1;
#X connect 137 0 138 0;
#X connect 138 0 134 0;
#X connect 139 0 140 1;
#X connect 140 0 150 0;
#X connect 141 0 143 0;
#X connect 142 0 149 1;
#X connect 143 0 142 0;
#X connect 143 1 144 0;
#X connect 144 0 146 1;
#X connect 145 0 133 1;
#X connect 145 1 136 0;
#X connect 146 0 139 0;
#X connect 147 1 137 0;
#X connect 148 0 140 1;
#X connect 149 0 148 0;
#X connect 150 0 133 0;
#X connect 150 1 146 0;
#X connect 150 2 149 0;
#X connect 151 0 63 0;
#X connect 151 1 128 0;
#X connect 151 2 121 0;
#X restore 37 326 pd sequencer;
#X f 19;
#X obj 38 394 hradio 15 1 0 16 empty step empty 0 -8 0 10 #fcfcfc #000000
#000000 0;
#X obj 38 379 tgl 15 0 one empty empty 17 7 0 10 #fcfcfc #000000 #000000
0 1;
#X obj 53 379 tgl 15 0 two empty empty 17 7 0 10 #fcfcfc #000000 #000000
0 1;
#X obj 68 379 tgl 15 0 three empty empty 17 7 0 10 #fcfcfc #000000
#000000 0 1;
#X obj 83 379 tgl 15 0 four empty empty 17 7 0 10 #fcfcfc #000000 #000000
0 1;
#X obj 98 379 tgl 15 0 five empty empty 17 7 0 10 #fcfcfc #000000 #000000
0 1;
#X obj 113 379 tgl 15 0 six empty empty 17 7 0 10 #fcfcfc #000000 #000000
0 1;
#X obj 128 379 tgl 15 0 seven empty empty 17 7 0 10 #fcfcfc #000000
#000000 0 1;
#X obj 143 379 tgl 15 0 eight empty empty 17 7 0 10 #fcfcfc #000000
#000000 0 1;
#X obj 158 379 tgl 15 0 nine empty empty 17 7 0 10 #fcfcfc #000000
#000000 0 1;
#X obj 173 379 tgl 15 0 ten empty empty 17 7 0 10 #fcfcfc #000000 #000000
0 1;
#X obj 188 379 tgl 15 0 eleven empty empty 17 7 0 10 #fcfcfc #000000
#000000 0 1;
#X obj 203 379 tgl 15 0 twelve empty empty 17 7 0 10 #fcfcfc #000000
#000000 0 1;
#X obj 218 379 tgl 15 0 thirteen empty empty 17 7 0 10 #fcfcfc #000000
#000000 0 1;
#X obj 233 379 tgl 15 0 fourteen empty empty 17 7 0 10 #fcfcfc #000000
#000000 0 1;
#X obj 248 379 tgl 15 0 fifteen empty empty 17 7 0 10 #fcfcfc #000000
#000000 0 1;
#X obj 263 379 tgl 15 0 sixteen empty empty 17 7 0 10 #fcfcfc #000000
#000000 0 1;
#X obj 204 324 s division;
#X text 393 165 Overlap;
#X text 290 144 Y-X-Dimension;
#X text 46 214 Select an effect/close the effect;
#X text 37 353 Select steps for the sequencer;
#X obj 39 12 declare -lib rtpghi~;
#X floatatom 251 278 10 1e-08 1000 2 Set\ Tolerance - tolerance 0;
#X text 345 260 of Phase Retrieval Algorithm Value on the left is devided
by 1000;
#X msg 159 260 160;
#X msg 99 259 80;
#X obj 189 176 tgl 20 0 mirror empty Mirror -10 -10 0 10 #c7c6ff #000000
#000000 0 1;
#X msg 166 301 15;
#X obj 281 392 s no_random;
#X obj 281 377 tgl 15 0 empty empty empty 17 7 0 10 #fcfcfc #000000
#000000 0 1;
#X obj 184 412 tgl 15 0 seq_dir empty Reverse_Audio_Playback 17 7 0
10 #fcfcfc #000000 #000000 0 1;
#X floatatom 0 399 5 0 0 0 - - - 0;
#X msg 204 302 6;
#X obj 593 123 osc~ 440;
#X floatatom 603 101 5 0 0 0 - - - 0;
#X obj 601 38 metro 100;
#X obj 600 16 tgl 15 0 empty empty empty 17 7 0 10 #fcfcfc #000000
#000000 0 1;
#X obj 556 124 *~ 1;
#X obj 580 84 tgl 15 0 empty empty empty 17 7 0 10 #fcfcfc #000000
#000000 0 1;
#X msg 363 165 32;
#X msg 203 268 1e-06;
#X msg 284 167 1024 256;
#X connect 5 0 6 0;
#X connect 9 0 8 0;
#X connect 10 0 8 2;
#X connect 11 0 8 1;
#X connect 13 0 12 0;
#X connect 20 0 21 0;
#X connect 21 0 22 0;
#X connect 21 1 70 0;
#X connect 22 0 15 0;
#X connect 23 0 27 0;
#X connect 26 0 27 1;
#X connect 53 0 26 0;
#X connect 54 0 26 0;
#X connect 56 0 27 2;
#X connect 58 0 57 0;
#X connect 61 0 45 0;
#X connect 62 0 66 0;
#X connect 63 0 62 0;
#X connect 64 0 67 0;
#X connect 65 0 64 0;
#X connect 67 0 66 1;
#X connect 68 0 14 1;
#X connect 69 0 51 0;
#X connect 70 0 14 0;
