#N canvas 313 115 1118 708 12;
#X obj 760 386 r~ audio_in;
#X obj 253 60 1;
#X obj 457 38 t f f;
#X obj 566 35 t f f;
#X obj 599 576 throw~ sig;
#X obj 181 60 3;
#X obj 567 12 r size_x;
#X obj 26 169 t f f;
#X obj 30 232 t f f;
#X obj 31 209 r size_y;
#X obj 74 607 spigot;
#X obj 153 607 spigot;
#X obj 218 604 spigot;
#X obj 310 600 spigot;
#X obj 366 600 spigot;
#X obj 434 594 spigot;
#X obj 251 667 r link;
#X obj 26 84 r array_y;
#X obj 383 12 r array_x;
#X obj 26 108 t a a;
#X obj 383 38 t a a;
#X msg 8 297 1 myKernel \$1;
#X msg 314 296 0 myKernel \$1;
#X obj 716 43 loadbang;
#X obj 728 224 s;
#X msg 772 158 symbol fragname-\$1;
#X obj 716 69 0;
#X msg 717 135 dir;
#X obj 716 158 pdcontrol;
#X obj 869 39 loadbang;
#X obj 924 215 s;
#X msg 978 109 symbol fragname-\$1;
#X msg 927 131 dir;
#X obj 926 154 pdcontrol;
#X obj 869 65 1;
#X msg 706 185 open \$1/kernel_x.frag;
#X msg 926 177 open \$1/kernel_y.frag;
#X obj 697 100 t b b f;
#X obj 915 97 t b b f;
#X obj 26 143 r len_y;
#X obj 457 12 r len_x;
#X msg 718 297 1 array_len 512;
#X msg 717 327 0 array_len 256;
#X msg 228 300 1 size \$1;
#X msg 433 297 0 array_len \$1;
#X msg 569 296 0 size \$1;
#X msg 116 297 1 array_len \$1;
#X msg 726 505 0 dist \$1;
#X msg 727 604 1 dist \$1;
#X floatatom 736 569 5 0 0 0 - - - 0;
#X obj 725 482 r dist_x;
#X obj 787 574 r dist_y;
#X floatatom 795 478 5 0 0 0 - - - 0;
#X obj 595 438 GOS 2 1, f 24;
#X msg 912 306 0 direc 1;
#X msg 995 308 1 direc 0;
#X connect 0 0 53 1;
#X connect 1 0 45 0;
#X connect 1 0 43 0;
#X connect 1 0 47 0;
#X connect 1 0 48 0;
#X connect 2 0 14 0;
#X connect 2 1 44 0;
#X connect 3 0 15 0;
#X connect 3 1 45 0;
#X connect 5 0 44 0;
#X connect 5 0 46 0;
#X connect 6 0 3 0;
#X connect 7 0 11 0;
#X connect 7 1 46 0;
#X connect 8 0 12 0;
#X connect 8 1 43 0;
#X connect 9 0 8 0;
#X connect 10 0 22 0;
#X connect 11 0 44 0;
#X connect 12 0 45 0;
#X connect 13 0 21 0;
#X connect 14 0 46 0;
#X connect 15 0 43 0;
#X connect 16 0 11 1;
#X connect 16 0 12 1;
#X connect 16 0 13 1;
#X connect 16 0 14 1;
#X connect 16 0 15 1;
#X connect 17 0 19 0;
#X connect 18 0 20 0;
#X connect 19 0 10 0;
#X connect 19 1 21 0;
#X connect 20 0 13 0;
#X connect 20 1 22 0;
#X connect 21 0 53 0;
#X connect 22 0 53 0;
#X connect 23 0 26 0;
#X connect 25 0 24 1;
#X connect 26 0 37 0;
#X connect 27 0 28 0;
#X connect 28 0 35 0;
#X connect 29 0 34 0;
#X connect 31 0 30 1;
#X connect 32 0 33 0;
#X connect 33 0 36 0;
#X connect 34 0 38 0;
#X connect 34 0 42 0;
#X connect 35 0 24 0;
#X connect 36 0 30 0;
#X connect 37 0 54 0;
#X connect 37 0 41 0;
#X connect 37 1 27 0;
#X connect 37 2 25 0;
#X connect 38 0 55 0;
#X connect 38 0 5 0;
#X connect 38 0 1 0;
#X connect 38 1 32 0;
#X connect 38 2 31 0;
#X connect 39 0 7 0;
#X connect 40 0 2 0;
#X connect 41 0 53 0;
#X connect 42 0 53 0;
#X connect 43 0 53 0;
#X connect 44 0 53 0;
#X connect 45 0 53 0;
#X connect 46 0 53 0;
#X connect 47 0 53 0;
#X connect 48 0 53 0;
#X connect 49 0 48 0;
#X connect 50 0 47 0;
#X connect 51 0 48 0;
#X connect 52 0 47 0;
#X connect 53 0 4 0;
#X connect 54 0 53 0;
#X connect 55 0 53 0;
