#N canvas 10 498 872 609 12;
#X obj 562 386 r~ audio_in;
#X obj 662 78 loadbang;
#X obj 402 476 throw~ sig;
#X obj 397 438 GOS 1 1, f 24;
#X obj 660 254 s;
#X msg 714 148 symbol fragname-\$1;
#X obj 664 146 t b f;
#X obj 662 104 0;
#X msg 620 164 dir;
#X obj 619 187 pdcontrol;
#X obj 184 137 loadbang;
#X msg 662 216 open \$1/mirror.frag;
#X msg 270 265 0 num \$1;
#X obj 269 226 r num;
#X obj 22 233 r X;
#X msg 21 270 0 X \$1;
#X obj 109 234 r dry_wet;
#X obj 192 190 0.5;
#X obj 109 191 10;
#X obj 240 190 5;
#X obj 306 191 - 10;
#X obj 364 198 0.5;
#X msg 413 273 0 x_off \$1;
#X msg 520 268 0 y_off \$1;
#X msg 347 265 0 Y \$1;
#X obj 345 230 r Y;
#X obj 413 229 r x_off;
#X obj 481 229 r y_off;
#X msg 130 265 0 wet \$1;
#X connect 0 0 3 1;
#X connect 1 0 7 0;
#X connect 3 0 2 0;
#X connect 5 0 4 1;
#X connect 6 0 8 0;
#X connect 6 1 5 0;
#X connect 7 0 6 0;
#X connect 8 0 9 0;
#X connect 9 0 11 0;
#X connect 10 0 17 0;
#X connect 10 0 18 0;
#X connect 10 0 19 0;
#X connect 10 0 20 0;
#X connect 10 0 21 0;
#X connect 11 0 4 0;
#X connect 12 0 3 0;
#X connect 13 0 12 0;
#X connect 14 0 15 0;
#X connect 15 0 3 0;
#X connect 16 0 28 0;
#X connect 17 0 28 0;
#X connect 18 0 15 0;
#X connect 19 0 12 0;
#X connect 20 0 24 0;
#X connect 21 0 22 0;
#X connect 21 0 23 0;
#X connect 22 0 3 0;
#X connect 23 0 3 0;
#X connect 24 0 3 0;
#X connect 25 0 24 0;
#X connect 26 0 22 0;
#X connect 27 0 23 0;
#X connect 28 0 3 0;
