#N canvas 357 110 1106 737 12;
#X obj 16 162 s bang-0;
#X obj 25 48 inlet;
#X obj 279 444 r id-\$1;
#X obj 278 470 outlet tex_id;
#X obj 337 676 clone buffers \$1 bang id shader;
#X obj 440 155 s, f 8;
#X msg 440 79 \$2 \$3 shader-\$1;
#X obj 440 105 list split 2;
#X obj 440 54 inlet shader;
#X obj 113 466 outlet data;
#X obj 89 98 s last;
#X obj 87 47 loadbang;
#X obj 88 74 \$1;
#X obj 159 47 inlet dimensions;
#X obj 277 189 s dimen;
#X obj 277 93 \$2;
#X obj 308 95 \$3;
#X obj 280 47 loadbang;
#X obj 277 123 pack;
#X msg 277 156 dimen \$1 \$2;
#X obj 55 245 tgl 15 0 empty empty empty 17 7 0 10 #fcfcfc #000000
#000000 0 1;
#X text 54 219 click to change pix_object;
#X obj 17 136 route bang;
#X obj 114 443 r data-\$1;
#X obj 278 70 t b b b;
#X obj 371 133 \$4;
#X obj 371 157 s load;
#X msg 55 274 \; pd-input_data~ vis \$1;
#X obj 593 50 inlet~ audio;
#X obj 560 327 rfft~;
#X obj 562 365 *~;
#X obj 596 364 *~;
#X obj 560 394 sqrt~;
#N canvas 200 100 190 200 nop~ 0;
#X obj 50 70 inlet~;
#X obj 50 140 outlet~;
#X connect 0 0 1 0;
#X restore 560 417 pd nop~;
#X obj 334 702 outlet~ sync;
#X msg 340 377 vis 1 1;
#X obj 829 47 r freeze;
#X obj 829 80 != 1;
#X obj 739 16 inlet;
#X obj 764 150 sel 1;
#X obj 830 115 t f f;
#X obj 740 46 unpack f f;
#X obj 792 308 switch~ 4096 1;
#X obj 765 180 f 2048;
#X msg 769 217 set \$1 1;
#X obj 588 598 /~ 1024;
#X obj 640 543 / 2;
#X obj 637 574 / 2, f 4;
#X obj 931 385 blackman~;
#X obj 931 342 sig~ 1;
#X obj 860 537 array define window_calc;
#X msg 843 473 resize \$1;
#X obj 931 410 tabsend~ window_calc;
#X obj 828 496 t b a;
#X obj 834 568 array sum window_calc;
#X obj 760 418 t f f;
#X obj 766 624 /;
#X obj 741 84 t f f f;
#X obj 713 480 t f f;
#X text 843 586 window gain loss compensation;
#X text 565 525 upper half of spec comp;
#X text 686 445 Normalization;
#X obj 587 631 *~ 1;
#X connect 1 0 22 0;
#X connect 2 0 3 0;
#X connect 4 0 34 0;
#X connect 6 0 7 0;
#X connect 7 0 5 0;
#X connect 7 1 5 1;
#X connect 8 0 6 0;
#X connect 11 0 12 0;
#X connect 12 0 10 0;
#X connect 13 0 14 0;
#X connect 15 0 18 0;
#X connect 16 0 18 1;
#X connect 17 0 24 0;
#X connect 18 0 19 0;
#X connect 19 0 14 0;
#X connect 20 0 27 0;
#X connect 22 0 0 0;
#X connect 22 1 20 0;
#X connect 23 0 9 0;
#X connect 24 0 15 0;
#X connect 24 1 16 0;
#X connect 24 2 25 0;
#X connect 25 0 26 0;
#X connect 28 0 29 0;
#X connect 29 0 30 0;
#X connect 29 0 30 1;
#X connect 29 1 31 0;
#X connect 29 1 31 1;
#X connect 30 0 32 0;
#X connect 31 0 32 0;
#X connect 32 0 33 0;
#X connect 33 0 45 0;
#X connect 35 0 4 0;
#X connect 36 0 37 0;
#X connect 37 0 40 0;
#X connect 38 0 41 0;
#X connect 39 0 43 0;
#X connect 40 0 39 0;
#X connect 40 1 42 0;
#X connect 41 0 57 0;
#X connect 43 0 44 0;
#X connect 44 0 42 0;
#X connect 45 0 62 0;
#X connect 46 0 47 0;
#X connect 47 0 45 1;
#X connect 48 0 52 0;
#X connect 49 0 48 0;
#X connect 51 0 53 0;
#X connect 53 0 54 0;
#X connect 53 1 50 0;
#X connect 54 0 56 1;
#X connect 55 0 58 0;
#X connect 55 1 51 0;
#X connect 56 0 47 1;
#X connect 57 0 55 0;
#X connect 57 1 44 0;
#X connect 57 2 43 1;
#X connect 58 0 46 0;
#X connect 58 1 56 0;
#X connect 62 0 4 1;
