#N canvas 298 291 872 609 12;
#X obj 562 386 r~ audio_in;
#X obj 337 24 loadbang;
#X obj 402 476 throw~ sig;
#X obj 397 438 GOS 1 1, f 24;
#X obj 335 200 s;
#X msg 389 94 symbol fragname-\$1;
#X obj 339 92 t b f;
#X obj 337 50 0;
#X msg 295 110 dir;
#X obj 294 133 pdcontrol;
#X obj 184 137 loadbang;
#X obj 192 190 1;
#X obj 240 190 1;
#X msg 337 162 open \$1/warp.frag;
#X obj 109 234 r noise_a;
#X obj 269 226 r noise_s;
#X msg 270 265 0 NOISE_S \$1;
#X msg 186 265 0 NOISE_A \$1;
#X connect 0 0 3 1;
#X connect 1 0 7 0;
#X connect 3 0 2 0;
#X connect 5 0 4 1;
#X connect 6 0 8 0;
#X connect 6 1 5 0;
#X connect 7 0 6 0;
#X connect 8 0 9 0;
#X connect 9 0 13 0;
#X connect 10 0 11 0;
#X connect 10 0 12 0;
#X connect 11 0 17 0;
#X connect 12 0 16 0;
#X connect 13 0 4 0;
#X connect 14 0 17 0;
#X connect 15 0 16 0;
#X connect 16 0 3 0;
#X connect 17 0 3 0;
